/* XPM */
static char *_69aa805fe8f4f79e7d4f88bf03b27bbaOcJZmOGFAEo6zpF[] = {
/* columns rows colors chars-per-pixel */
"64 64 146 2 ",
"   c black",
".  c #F2501D",
"X  c #FFDB45",
"o  c #150F02",
"O  c #B0BEC6",
"+  c #130602",
"@  c #030503",
"#  c #FED944",
"$  c #F5511D",
"%  c #030100",
"&  c #0D0401",
"*  c #FBD743",
"=  c #F7521E",
"-  c #3B4042",
";  c #E54A1A",
":  c #962E0E",
">  c #7D290E",
",  c #E14717",
"<  c #AEBCC3",
"1  c #816E22",
"2  c #484D50",
"3  c #511A09",
"4  c #0B0B06",
"5  c #B53811",
"6  c #524515",
"7  c #172317",
"8  c #080200",
"9  c #90A4AE",
"0  c #202527",
"q  c #B07604",
"w  c #619563",
"e  c #79BA7B",
"r  c #FED640",
"t  c #261D07",
"y  c #2D270C",
"u  c #707B81",
"i  c #2E3437",
"p  c white",
"a  c #373E42",
"s  c #FF9116",
"d  c #A5B5BD",
"f  c #FFB715",
"g  c #1B1706",
"h  c #FFBE1F",
"j  c #100D03",
"k  c #978028",
"l  c #973212",
"z  c #D2DADE",
"x  c #2A0E04",
"c  c #200B03",
"v  c #75260D",
"b  c #889CA5",
"n  c #D38E05",
"m  c #3C1508",
"M  c #AB922E",
"N  c #EE4F1D",
"B  c #6A220C",
"V  c #FDDA4B",
"C  c #FE8B1D",
"Z  c #FD7240",
"A  c #99ADB7",
"S  c #4D270C",
"D  c #D7DEE2",
"F  c #535F65",
"G  c #C1CCD2",
"H  c #3F474B",
"J  c #73621E",
"K  c #B59B31",
"L  c #31373B",
"P  c #121517",
"I  c #5E1F0B",
"U  c #92A7B1",
"Y  c #A73512",
"T  c #D69006",
"R  c #B53C15",
"E  c #E94E1C",
"W  c #F46432",
"Q  c #8C2E11",
"!  c #A28A2B",
"~  c #223422",
"^  c #FEE89D",
"/  c #F8794F",
"(  c #887424",
")  c #F55624",
"_  c #C1A434",
"`  c #EAC83F",
"'  c #C8D2D7",
"]  c #D8DFE3",
"[  c #A06709",
"{  c #FEEAB4",
"}  c #FDDFD6",
"|  c #F88865",
" . c #F5D141",
".. c #662C1B",
"X. c #D37713",
"o. c #5A3209",
"O. c #E68214",
"+. c #87401E",
"@. c #C86F0E",
"#. c #BAC6CD",
"$. c #FEEEEB",
"%. c #544817",
"&. c #6D7A81",
"*. c #FCB53D",
"=. c #FFFCF2",
"-. c #FEE581",
";. c #F99F7F",
":. c #FED662",
">. c #D54316",
",. c #FA7B2F",
"<. c #F4752E",
"1. c #4C3708",
"2. c #8B2B0E",
"3. c #B68A1B",
"4. c #832C10",
"5. c #EA5A15",
"6. c #FCB759",
"7. c #FAA739",
"8. c #EFCC40",
"9. c #FED785",
"0. c #CAAD36",
"q. c #AA4B2D",
"w. c #9B4429",
"e. c #E1E7E9",
"r. c #865A03",
"t. c #A6740A",
"y. c #39300F",
"u. c #FBBDA1",
"i. c #98ABB5",
"p. c #525E64",
"a. c #1C0803",
"s. c #FEC342",
"d. c #A1B2BA",
"f. c #F97938",
"g. c #775205",
"h. c #8FA2AC",
"j. c #F8B418",
"k. c #FDD399",
"l. c #FEEFCD",
"z. c #FBCDBC",
"x. c #FCCDC0",
"c. c #876410",
"v. c #CDAF37",
"b. c #FD001D",
"n. c #005045",
"m. c #F2DB02",
/* pixels */
"                                                                                                                                ",
"                  o t j                                                                                 j t o                   ",
"                o.X.O.@.S                                                                             S @.O.X.o.                ",
"            % t O.s s s X.c                                                                       @ c X.s s s O.t               ",
"              o.s s s s C S                                                                         S C s s s s o.              ",
"              S ,.C C C <.m                                                                       @ m <.C C C ,.S               ",
"              + q.Z Z Z w.8                                                                         8 w.Z Z Z q.+               ",
"                + ..+...+                                                                             + ..+...+                 ",
"                  % % %                                                                                   % % %                 ",
"                                                                                                                                ",
"                                                                                                                                ",
"                                                                                                                                ",
"                % % % % %                                                                             % % % % %                 ",
"              i u u u u u 0                                                                       @ 0 u u u u u i               ",
"              H A A A A i.L                                                                         L i.A A A A H               ",
"              0 F F F F p.0                                                                         0 p.F F F F 0               ",
"                                                                                                                                ",
"  g J 1 1 1 1 y.  8 I > > > > > > +.1 1 1 1 1 1 1 y.  & B > > > > > x   j J 1 1 1 1 1 y   + B > > > > > > +.1 1 1 1 1 1 1 t     ",
"  y 8.X X X K g 8 > . = = = = / f.*.X X X X X X ! o 8 Q . = = = = l + 4 k # X X X X k j & l $ = = = ) / ,.s.X X X X X # ( 4     ",
"  y ` # X M g % > N $ $ $ $ | $.{ V # # # # # ! j 8 Q . $ $ $ $ l & 4 k * # # # * k 4 & l $ $ $ $ ) ;.$.^ # # # # # * ( @ & &   ",
"  y ` X M g % > N $ $ $ $ Z $.p ^ # # # # # ! j 8 Q . $ $ $ $ l & 4 k * # # # * k 4 & l $ $ $ $ $ | =.=.-.# # # # * ( @ + : x   ",
"  y ` M g % > N $ $ $ . $ <.^ ^ # # # # # ! j 8 Q . $ $ $ $ l & 4 k * # # # * k 4 & l $ $ $ . $ . f.{ -.# # # # * ( @ + Y ; x   ",
"  y k g % > . $ $ $ $ | u.6.# # # # # # ! j 8 Q . $ $ $ $ l & 4 k * # # # * k 4 & l $ $ $ $ ) ;.u.s.V # # # # * ( @ + Y = ; x   ",
"  4 j % > N . . . . ) z.p -.r r r r r ! j 8 Q . . . . . l & 4 k r r r r r k 4 & l . . . . . W } =.:.r r r r  .( @ + Y $ $ , x   ",
"    8 v , , , , , , 5.7.:.f f f f f t.j & > , , , , , 2.& j [ f f f f f [ 4 & 2., , , , , , 5.*.:.f f f f j.c.@ + : , , , >.x   ",
"    m : : : : : : : [ q q q q q q r.j   m : : : : : v &   1.q q q q q r.&   3 : : : : : : l [ q q q q q q g.8   3 : : : : 2.a.  ",
"      % % % % %     % % % % % % %       % % % % % %       @ % % % % %       % % % % % % % % 8 % % % % % %       % % % % % %     ",
"            @ P a a a a a P                                                                         P a a a a a P               ",
"              - 9 9 9 9 h.L                                                                         L h.9 9 9 9 H               ",
"              H U U U U 9 L                                                                         L 9 U U U U H               ",
"              i &.&.&.&.&.0                                                                         0 &.&.&.&.&.i               ",
"                @ @ @ @ @                                                                           @ @ @ @ @ @                 ",
"  j 6 %.%.%.%.y     m 3 3 3 3 3 3 S 6 %.%.%.%.%.%.t   % m 3 3 3 3 3 c   @ 1.%.%.%.%.%.t   8 m 3 3 3 3 3 3 S 6 %.%.%.%.%.%.g     ",
"  y ` * * # 0.y   I ; . . . . W W 7.* * * * * # _ t   B ; . . . $ R c % J 8.* * * # K g % v E . . . . W W *.* * * * * * M o     ",
"  y ` # X 0.y   I ; = $ $ $ / } k.# # # # # X _ t   B E = $ $ = R c   J  .# # # X K g % v N $ $ $ $ | } 9.# # # # # # M o % %   ",
"  y ` X 0.y   I ; = $ $ . Z } p { V # # # X _ t   B E = $ $ = R c   J  .# # # X K g % v N $ $ $ . / $.p ^ # # # # # M o 8 v x   ",
"  y 8.v.y   I ; = $ $ $ . W { { V # # # X _ t   B E = $ $ = R c   J  .# # # X K g % v N $ $ $ $ . / l.^ V # # # # M o 8 4., x   ",
"  y K y   I ; = $ $ $ / ;.7.V V # # # X _ t   B E = $ $ = R c   J  .# # # X K g % v N $ $ $ . | ;.*.V V # # # # M o 8 4.. ; x   ",
"  o t   I ; = $ $ $ ) x.p -.r # # # X _ t   B E = $ $ = R c   J  .# # # X K g % v N $ $ $ $ W } =.:.r # # # # M o 8 4.. = ; x   ",
"      3 >.; ; ; ; ; E 6.9.h h h h h 3.t   I >.; ; ; ; Y c % g.j.h h h h 3.g % B , ; ; ; ; ; 5.6.9.h h h h h 3.o 8 v , ; ; >.x   ",
"    m Y 5 5 5 5 5 5 @.n T n n n T q t   m Y 5 5 5 5 : a.  1.n T n n T t.g   3 5 5 5 5 5 5 R @.T T n n n T [ o   3 5 5 5 5 Y c   ",
"    & + + + + + + + o o o o o o o &     & + + + + + 8     j o o o o o &     & + + + + + + + o o o o o o o 8     & + + + + + %   ",
"              4 0 0 0 0 0 4                                                                         4 0 0 0 0 0 4               ",
"            @ a b b b b b i                                                                         i b b b b b a               ",
"              H d d d d d.a                                                                         a d.#.z #.d H               ",
"              2 O O < O < -                                                                         - < z p ] O 2               ",
"              2 O G z G < -                                                                         - < z p D O 2               ",
"              2 O ] p z < -                                                                         - < z p D O 2               ",
"              2 O D p z < -                                                                         - < z p ] O 2               ",
"              2 O D p z < -                                                                         - < G D G O 2               ",
"              2 O ] p z < -                                                                         - < O < < O 2               ",
"              2 O ' e.' < -                                                                         - < G e.' O 2               ",
"              2 O O < O < -                                                                         - < z p D O 2               ",
"              2 O G D G < -                                                                         - < #.' #.O 2               ",
"              2 O ] p z < -                                                                         - < O < O O 2               ",
"              2 O G D G < -                                                                         - < O O O O 2               ",
"              H d d d d d a                                                                         a d d d d d H               ",
"            @ - h.h.h.h.h.L                                                                         i h.h.h.h.9 -               ",
"              P i i i i i P                                                                         P i i i i i P               ",
"          % @ @ @ @ @ @ @ @ @                                                                     @ @ @ @ @ @ @ @ @ %           ",
"          ~ w w w w w w w w w 7                                                                 7 w w w w w w w w w ~           ",
"        @ ~ e e e e e e e e e ~                                                                 ~ e e e e e e e e e ~           ",
"          4 7 7 7 7 7 7 7 7 7 @                                                                 @ 7 7 7 7 7 7 7 7 7 4           ",
"                                                                                                                                "
};
