/* XPM */
static char *_42d95af66014720b36b507548cdbf0cMdA6J09i8NJSRqH5[] = {
/* columns rows colors chars-per-pixel */
"64 64 256 2 ",
"   c black",
".  c #08080B",
"X  c #181618",
"o  c #B9242E",
"O  c #100707",
"+  c #0F0F11",
"@  c #74191E",
"#  c #020202",
"$  c #040404",
"%  c #D22931",
"&  c #E25852",
"*  c #0A0404",
"=  c #5D161E",
"-  c #340C10",
";  c #D82933",
":  c #6F1A24",
">  c #651826",
",  c #180608",
"<  c #200D0E",
"1  c #9C2121",
"2  c #BC2731",
"3  c #170D0C",
"4  c #C92A33",
"5  c #290B0E",
"6  c #FD4642",
"7  c #BA2520",
"8  c #B0221E",
"9  c #A8211E",
"0  c #A62532",
"q  c #54141A",
"w  c #F3804C",
"e  c #AE4644",
"r  c #8E1F23",
"t  c #6C171E",
"y  c #B12531",
"u  c #9C2635",
"i  c #D53641",
"p  c #232328",
"a  c #2F2E34",
"s  c #DC4E4E",
"d  c #AC222B",
"f  c #BC3441",
"g  c #941F1F",
"h  c #C32933",
"j  c #7F2738",
"k  c #3E0F14",
"l  c #C32823",
"z  c #CC3746",
"x  c #1F1B1D",
"c  c #451415",
"v  c #D84643",
"b  c #4D1118",
"n  c #A22221",
"m  c #C43643",
"M  c #8A2637",
"N  c #994343",
"B  c #741B2C",
"V  c #CA4447",
"C  c #8C799A",
"Z  c #D23F4A",
"A  c #D34E4D",
"S  c #CE2A34",
"D  c #FAB45E",
"F  c #FD554F",
"G  c #CD2720",
"H  c #D92F26",
"J  c #841B1E",
"K  c #F49F52",
"L  c #7D1E23",
"P  c #5B1E25",
"I  c #6C1828",
"U  c #75757A",
"Y  c #912535",
"T  c #E23038",
"R  c #862F45",
"E  c #948DA5",
"W  c #FD4F47",
"Q  c #9A2F3C",
"!  c #F5784E",
"~  c #7C1A1B",
"^  c #E2382D",
"/  c #842025",
"(  c #66262C",
")  c #D72F38",
"_  c #B02F3E",
"`  c #7B2242",
"'  c #873370",
"]  c #A67B8D",
"[  c #434346",
"{  c #E76857",
"}  c #FAC46D",
"|  c #4A4953",
" . c #66151A",
".. c #E6D6C7",
"X. c #918D8F",
"o. c #B7ABA9",
"O. c #B82B37",
"+. c #9C212C",
"@. c #F64C41",
"#. c #3F231E",
"$. c #A36079",
"%. c #792278",
"&. c #8F333C",
"*. c #F24346",
"=. c #B73B46",
"-. c #CC5938",
";. c #91533E",
":. c #7B4A4E",
">. c #FB9454",
",. c #CE6F40",
"<. c #E54C49",
"1. c #694753",
"2. c #EF393F",
"3. c #B86867",
"4. c #A69A9A",
"5. c #DDC9B7",
"6. c #CE302A",
"7. c #962627",
"8. c #E6795D",
"9. c #D93730",
"0. c #EF4238",
"q. c #E83A33",
"w. c #887CAA",
"e. c #AFB5D4",
"r. c #E6433F",
"t. c #772452",
"y. c #E46F4A",
"u. c #712B32",
"i. c #42242D",
"p. c #6A1B3A",
"a. c #BF2729",
"s. c #EF934F",
"d. c #816B85",
"f. c #E2A96E",
"g. c #393A3D",
"h. c #5C2433",
"j. c #71333A",
"k. c #CE525B",
"l. c #7B3D59",
"z. c #732231",
"x. c #69656D",
"c. c #D57E47",
"v. c #CDC0C4",
"b. c #5C5D61",
"n. c #AC3C48",
"m. c #B4B6C3",
"M. c #B2ADB6",
"N. c #5C5758",
"B. c #B8BCCA",
"V. c #EFD4A2",
"C. c #A4413C",
"Z. c #F9DF7D",
"A. c #9B9FAD",
"S. c #C6B085",
"D. c #763449",
"F. c #91435A",
"G. c #4C1D1F",
"H. c #7C238D",
"J. c #CD8B57",
"K. c #7C2369",
"L. c #D65C49",
"P. c #BE4D52",
"I. c #F5996A",
"U. c #7A5275",
"Y. c #6D4A36",
"T. c #DE655C",
"R. c #D25F63",
"E. c #ED6E60",
"W. c #DC6D58",
"Q. c #5D2F3D",
"!. c #F8A761",
"~. c #F9847E",
"^. c #706763",
"/. c #D4D6DD",
"(. c #F47766",
"). c #A3928D",
"_. c #C5B7AD",
"`. c #DCE1E6",
"'. c #DCBDA7",
"]. c #FA6D66",
"[. c #AD8F6F",
"{. c #762137",
"}. c #5B342B",
"|. c #B4222A",
" X c #8B4B67",
".X c #4B2C34",
"XX c #9A7A91",
"oX c #E87B4B",
"OX c #852C5D",
"+X c #2D1F27",
"@X c #B16349",
"#X c #F45D52",
"$X c #2A1B14",
"%X c #A73036",
"&X c #C3594E",
"*X c #9C869A",
"=X c #FE625A",
"-X c #886255",
";X c #777B8C",
":X c #7B6D6B",
">X c #C03535",
",X c #7A4A3B",
"<X c #E37769",
"1X c #57424C",
"2X c #F28B66",
"3X c #D97172",
"4X c #C27782",
"5X c #9A6475",
"6X c #B58795",
"7X c #97837F",
"8X c #E8C393",
"9X c #D6CA92",
"0X c #EBD98C",
"qX c #AD2E27",
"wX c #5C5C84",
"eX c #843838",
"rX c #311221",
"tX c #984B73",
"yX c #A55248",
"uX c #E75F3E",
"iX c #C294A1",
"pX c #DC9664",
"aX c #AA3743",
"sX c #ECB8B5",
"dX c #D2CED4",
"fX c #BFC1CB",
"gX c #EC9880",
"hX c #886D6D",
"jX c #FBF180",
"kX c #8A7A73",
"lX c #4B3843",
"zX c #FCF5C2",
"xX c #EFDEB5",
"cX c #F0EB99",
"vX c #777AAA",
"bX c #A5A7C7",
"nX c #E4A62A",
"mX c #21365A",
"MX c #A7ABAE",
"NX c #E5EAEE",
"BX c #F4B38A",
"VX c #AB505F",
"CX c #995E5A",
"ZX c #CF9097",
"AX c #E8D571",
"SX c #D8828D",
"DX c #DAA197",
"FX c #F8AE71",
"GX c #DFCFA0",
"HX c #523E2B",
"JX c #5E5870",
"KX c #C98946",
"LX c #C6A06A",
"PX c #D18A3F",
"IX c #000818",
"UX c #08162E",
/* pixels */
"                                                                                                                                ",
"                                                                                                                                ",
"                                                                                                                                ",
"                                                                                                                                ",
"                                                                                                                                ",
"                                                                                                                                ",
"                                                                                                                                ",
"                                                                                                                                ",
"                                                                                                                                ",
"                                                                                                                                ",
"                                                                                                                                ",
"                                                                                                                                ",
"                                                                                                                                ",
"                                          # X 3 O * * * O O 3 3 3 3 3 3 O O O O * $ #                                           ",
"                                        $X,X3.@XyXN N N C.C.e e e e e e e e e e C.C.N eXu.j.$X                                  ",
"                                      #.eX&.j B B : : : @ @ @ @ @ @ ~ ~ ~ J J J r r 7.0 O.s W.Y.O                               ",
"                                    5 P = > : L / r r +.+.0 d d d d |.o o o o o o o |.d 1 g >X].N x # # * O * *                 ",
"                                  O P {.M Y Y u u u 0 0 y y o 2 2 2 h h h 4 S S % ) ) ; T T o v 3.1Xz.r n d d 1 J  .,           ",
"                                $ G.j M M Y u u 0 0 0 0 y y o o 2 2 h h 4 4 S S S % ) ; T T T >X3.[ &.; ; ; ; ; ; ; J #         ",
"                                5 ( D.D.D.R M Y u 0 0 y y o o 2 2 2 h 4 4 S % % % ; ; ; T T 2.2 A ^.Q.4 % % % % % ; |.,         ",
"                              O #.wXw.E E w.C d.U.Q.P L +.d y Q o o o |.d 0 _ aXn.n.n.n.=.f S 2 V 5X| %X% % % % % % 4 -         ",
"                            # 5 JXbXe.e.e.e.e.e.vXmXIX+ p lX5XC 5X1X+X, +Xa ;Xm.m.B.B.m.m.M.4.1.Y 4Xb.j.4 % % % % % % b         ",
"                            , .XC *XXXXX] ] ] ] d.| 5 < p ;XB.B.m.wXmX, < a *Xv.v.v.dX/./.`.`.A.h.T.U lXe { y.uXuX& v  .        ",
"        * $X}.Y.Y.Y.HX#.$X$X( j.R R &.&.&.Q Q Q Q Q u u Q VX3.3.P.n.%Xd y O.m z Z Z A k.R.3XSX6XQ.s 6X| :.gX!.D FXV.BX;.$       ",
"    # #.;.&XW.8.2XI.I.I.f.f.f.f.f.pXpXJ.J.J.J.,.c.c.-.PX,.-.,.c.,.,.-.-.-.-.-.L.L.v v i i v <.& &X<XDX:XCXBXD >.FX} } f.#.      ",
"    }.yXe =.=.V T.{ E.(.I.D } !.!.D } } } D D D D D !.D !.K K K K K K K K K s.K s.c.W.W.8.8.8.E.(.(.2XgXgXpXc.2XZ.} Z.Z.[..     ",
"  < yXN Q aXaX_ P.k.& { w s.oXW.y.y.oXs.s.w s.w w ! ! ! ! ! ! ! w >.>.>.>.>.>.I.2X8.8.<X{ & <.<.*.*.F ].~.8.@X[.Z.Z.Z.jX5.a     ",
"# #.&.R &.N N n._ f V s & & A A A L.L.L.y.y.y.oXoXw ! w w w w w w w ! ! { { { W.T.& A k.s r.2.2.*.6 6 F ].DXS.9X9X9XS.AX8X1X    ",
"  G.j j ;.@X).*X] VX=.m V A A P.k.V V V V Z A A A s s s & & & & & & & & & & & s v i i Z Z v v 2.*.6 6 F ~.hX[.zXcXcXjXAX8Xi.    ",
"# G.z.z.;.;.M.m.fXA.*X$.=.f f =.=.f f m f m m m z z z z z z Z Z Z k.s <.s v Z k.R.4XiXo.LXnX,.r.6 6 W ].sXo.[.zXcX0XjX0XS.x     ",
"$ G.z.B u.:.E M.bXA.E C Q _ _ _ _ f f f f m m m m z z z z i i i i i i i Z 4X4.M.dX`./.fXJ.nX,.*.6 F F ~.sXfXS.zXGX0X9XS.'.|     ",
"* P I B :.:.l.l.U.d.d.d.Q u u u %X_ _ O.O.O.O.O.h h 4 S S ) ) ) ) ) ) S 4XB.m./.NXNX`.M.KXc.<.6 W F =X~.ZXE '.xXGXV.S.[.5.U     ",
"O h.t u.-XhXl.` j j j R Y M M M Y u 0 0 y y O.2 2 h h 4 S % ) ) ) ) ) i 6XiX6XiXZXSX3XR.<.*.6 W F =X=X].] U _.xXV.V.0XGXo.;X.   ",
"3 h.t p.l.l.' K.OXOX' F.R ' ' OXR M Y +.+.0 0 y y o 2 h 4 S % % 6.l a.a.4 i ) T T T 2.2.*.@.6 W =XF W { 7XN.o.xX8X8X} V.4.;Xx   ",
"3 h.t > > z.t.%.%.H.K.` B p.p.p.t.` j / / r r g 1 1 n 9 9 9 9 9 9 8 8 n 8 l 9.9.r.q.r.0.0.#XF F W 6 6 R.U 1.4...5.'.'...X.U p   ",
"O h.t t : B ` %.H.K.` B b 5 i.1.U.l.D.j.( ( u.u.u.j.j.D.:.:.1.1.Q.P ~ g g 9 7 G H H ^ ^ q.@.@.@.W 6 W 3.U Y.X..._._.o.v.kXU a   ",
"* .X> I I : z.%.H.` B b $ . a wXvXw.w.w.w.C C C C C E E E E C d.x.1Xi.= J 1 8 l G H H ^ q.0.0.@.@.W F CXx.Y.X.5.......4.:X:Xg.  ",
"# i.> > I t B %.H.OXM b rXi.1.U. X X XF.F. XtX5X$.$.$.] ] *XXXd.x.| a x q g 9 7 G G H ^ ^ q.0.@.#X#XE.1.x.,XX.5.....5.^.^.hX|   ",
"  rX( > > t : t.H.' $.$.H.%.t.` R j M Y 7.+.+.d d o 2 h >Xm V P.e N eX( P r 9 7 G G H 9.^ q.0.@.E.(.3XlXb.,XX.5.sX'.).g.^.kXb.  ",
"  X h.> > t t I K.%.tX$.tX' t.p.I : : : @ @ L J J g g 1 n 9 8 7 7 l l 4 2 y 8 l G G H 9.^ r.r.#X<X~.3.a N.;.4.v._.o.N.p N.kXx.  ",
"  X Q.P = =  . .I t.K.' F.F.R j ` B : @ @ L L / / r g g 1 n 9 8 8 7 a.h a.a.7 l G 6.H 9.^ r.<.& E.(.:.p N.;.4.).X.U a X N.7XU   ",
"  + .XP = = > > > I I p.{.j j {.{.: @ @ B L / r r 1 1 1 n n 1 9 8 8 7 7 7 7 7 l l 6.6.9.9.v & T.<X3X.Xp [ -Xo.7X:X| X X [ ).X.  ",
"  . +Xi.b q q q = = = = > > I : : : : : : : L L / r g 7.7.7.1 1 n n 9 8 8 8 7 7 l l 6.6.9.v L.R.T.@X+Xp g.-X_.).b.g.+ + a o.A.  ",
"  . X x rXk k k c b b b b q q q q q = = q = =  .t @ @ ~ L J L L / r g g 1 1 n 9 8 qXqXqX>XV P.&X&X}.x x a -Xv.7X| g.+ + p M.A.  ",
"  . + . + < 5 5 5 - - - - - - - - - k - k k k c c c c b q q = q =  .t t @ @ @ ~ ~ @ : ( 7.%XC.N }.x X x p ^.dXb.[ p + + x MXA.  ",
"  . . $ # $ $ . * O O , , , , , < < < , , 5 5 5 5 5 5 5 5 - - - - k k - k k c c c c c G.P ( P #.X X X x p x.`.[ X + + + X U X.  ",
"  # . $ $ $ $ #           # $ # $ # * $ $ * * * O O O O , O , , 3 , 3 O 3 < < < < < < < 3 3 + + + X X X p b./.a # . . + x [ a   ",
"    # # # $ $ $ $ $ $ $ $ $ $ $ $ $ $ $ # # # # # # # # #           #   # # $ $ $ $ $ $ . . . . + + + X x [ MXa # # $ $ . + $   ",
"                      # # # # # # # $ $ $ $ $ #                                     # $ $ $ $ $ . . + + x g.[ .                 ",
"                                                                                      $ . . $ $ $ $ * . X p .                   ",
"                                                                                        $ $ #         # $ #                     ",
"                                                                                                                                ",
"                                                                                                                                ",
"                                                                                                                                ",
"                                                                                                                                ",
"                                                                                                                                ",
"                                                                                                                                ",
"                                                                                                                                ",
"                                                                                                                                ",
"                                                                                                                                ",
"                                                                                                                                ",
"                                                                                                                                ",
"                                                                                                                                ",
"                                                                                                                                "
};
