/* XPM */
static char *_45600f6aca74c74dc59347c41f962e90J6XIJ0kragO0SzT[] = {
/* columns rows colors chars-per-pixel */
"64 64 256 2 ",
"   c None",
".  c #F3F3F3",
"X  c gray94",
"o  c #EFEFEF",
"O  c #FBFCFC",
"+  c #F4F4F4",
"@  c gray98",
"#  c #F6F6F6",
"$  c gray96",
"%  c gray97",
"&  c #F1F1F1",
"*  c #F9F9F9",
"=  c #030203",
"-  c #FDFDFD",
";  c #EEEEEE",
":  c white",
">  c #F9FAFA",
",  c #D22B32",
"<  c #BC2630",
"1  c #BE2622",
"2  c #1B090C",
"3  c #222124",
"4  c #7F1D1F",
"5  c #75181B",
"6  c #661724",
"7  c #6C161D",
"8  c #F47E4D",
"9  c #C5292E",
"0  c #1A1A1B",
"q  c #701B22",
"w  c #E25852",
"e  c #100F11",
"r  c #942021",
"t  c #53131B",
"y  c #FC4643",
"u  c #B7252F",
"i  c #250D0F",
"p  c #6E1929",
"a  c #100506",
"s  c #090A0C",
"d  c #DA2D35",
"f  c #8C2637",
"g  c #A8211F",
"h  c #2A292C",
"j  c #D4262E",
"k  c #411114",
"l  c #C03643",
"z  c #A12120",
"x  c #CC454A",
"c  c #D33C48",
"v  c #D93128",
"b  c #CC2A33",
"n  c #5B151D",
"m  c #D76A67",
"M  c #B0252F",
"N  c #A9252E",
"B  c #CD2821",
"V  c #D1D2D5",
"C  c #370E12",
"Z  c #8A1E21",
"A  c #9C2634",
"S  c #D4353F",
"D  c #732534",
"F  c #FB4E45",
"G  c #B73442",
"H  c #D34F4B",
"J  c #4A1317",
"K  c #9B2322",
"L  c #AF231F",
"P  c #D95451",
"I  c #AC3C47",
"U  c #A42734",
"Y  c #CA3946",
"T  c #E77861",
"R  c #8C7A99",
"E  c #4C4953",
"W  c #837D7C",
"Q  c #DE6859",
"!  c #FD554F",
"~  c #B6B9C5",
"^  c #300B10",
"/  c #FAB25F",
"(  c #E9D5C9",
")  c #151516",
"_  c #343335",
"`  c #B4AFB1",
"'  c #C03036",
"]  c #7F2538",
"[  c #EADCD6",
"{  c #751B2A",
"}  c #D9DBDF",
"|  c #EAE6E7",
" . c #E3382E",
".. c #DD484C",
"X. c #F39E51",
"o. c #9A303C",
"O. c #EAEAEC",
"+. c #948E8F",
"@. c #615C62",
"#. c #EB4036",
"$. c #6D6768",
"%. c #C1C2C8",
"&. c #F1E7E3",
"*. c #E53239",
"=. c #5E1924",
"-. c #F03D43",
";. c #6F4A50",
":. c #454244",
">. c #AA8B91",
",. c #A09A9A",
"<. c #B5231F",
"1. c #E2E1E1",
"2. c #9C222C",
"3. c #DAD8DA",
"4. c #9FA0A8",
"5. c #792277",
"6. c #832C43",
"7. c #662B31",
"8. c #AB303A",
"9. c #D97872",
"0. c #D1695C",
"q. c #CC834A",
"w. c #D7423E",
"e. c #9F687A",
"r. c #7D4D42",
"t. c #FB665E",
"y. c #948D9D",
"u. c #B72B35",
"i. c #A6A8AF",
"p. c #C8323E",
"a. c #CDCECE",
"s. c #8D4964",
"d. c #F2483F",
"f. c #C1514E",
"g. c #7B2142",
"h. c #85306D",
"j. c #B2B8D4",
"k. c #FB9554",
"l. c #CC5938",
"z. c #72323E",
"x. c #EBC1B4",
"c. c #F2AF7E",
"v. c #BEB8B9",
"b. c #CBC2C8",
"n. c #F77569",
"m. c #B96564",
"M. c #5F2829",
"N. c #897CAB",
"B. c #F4EEEA",
"V. c #832E5C",
"C. c #CC545D",
"Z. c #A27C94",
"A. c #E9685A",
"S. c #D58581",
"D. c #8F2F36",
"F. c #F29064",
"G. c #806D81",
"H. c #DECDC4",
"J. c #ADAFBC",
"K. c #BBA8A6",
"L. c #DE9794",
"P. c #70727A",
"I. c #F78377",
"U. c #68313F",
"Y. c #D5CCD1",
"T. c #90202D",
"R. c #DEBAA9",
"E. c #F3DC81",
"W. c #EDD3A1",
"Q. c #E4714B",
"!. c #968BAB",
"~. c #D9313A",
"^. c #E45144",
"/. c #772251",
"(. c #7D238D",
"). c #EF924F",
"_. c #A35870",
"`. c #442430",
"'. c #EA7B4A",
"]. c #E0867C",
"[. c #393A3D",
"{. c #AF5155",
"}. c #E54244",
"|. c #E7644D",
" X c #8E6360",
".X c #804556",
"XX c #D26840",
"oX c #8F5D51",
"OX c #D87D45",
"+X c #565456",
"@X c #98817F",
"#X c #C27A85",
"$X c #7F6A6C",
"%X c #DBC6B5",
"&X c #D8CC9B",
"*X c #FBEB80",
"=X c #C4B086",
"-X c #83212A",
";X c #7C3946",
":X c #D19C63",
">X c #704668",
",X c #331C25",
"<X c #25161C",
"1X c #6B1C3C",
"2X c #F45D52",
"3X c #693654",
"4X c #A4778B",
"5X c #29283B",
"6X c #883343",
"7X c #99454D",
"8X c #542F40",
"9X c #D4B1A8",
"0X c #FAC065",
"qX c #F2724F",
"wX c #B29C9C",
"eX c #F0DAB5",
"rX c #CDC3B5",
"tX c #EFE997",
"yX c #AD916D",
"uX c #DFE5EB",
"iX c #8F397D",
"pX c #5C5C84",
"aX c #817098",
"sX c #7C2266",
"dX c #641A30",
"fX c #E0AD6B",
"gX c #913B3A",
"hX c #8F3750",
"jX c #F6F8F9",
"kX c #CF9396",
"lX c #96553A",
"zX c #7D597A",
"xX c #F9A56C",
"cX c #F49886",
"vX c #AB686B",
"bX c #F7A35E",
"nX c #FCF5C2",
"mX c #F8C279",
"MX c #EBC492",
"NX c #DAC08B",
"BX c #EBD276",
"VX c #21375A",
"CX c #E4A62B",
"ZX c #FBCB62",
"AX c #A8AACE",
"SX c #9A506B",
"DX c #633E46",
"FX c #C994A0",
"GX c #CC6571",
"HX c #F2B0AF",
"JX c #AF6841",
"KX c #DB8B5D",
"LX c #7784B1",
"PX c #B594A4",
"IX c #794F5E",
"UX c #AF4945",
/* pixels */
": # o O # o O # o O # o O # o - % ; O % ; O % ; O % ; O % ; O % ; O % ; O % ; O % ; O % ; O O ; % O ; % O ; % O ; % O ; % - X   ",
"$ # # $ # # $ # # $ # # $ # # $ # # $ # # $ # # $ # # $ # # # # # $ # # $ # # $ # # $ # # # $ # # $ # # $ # # $ # # $ # # $ #   ",
"o # O X # O X # O X # O X # O X $ O & $ O & $ O & $ O & $ O & + O & + O & + O & + O & + O & & O + & O + & O + & O + & O + X *   ",
"- # X O # X O # X O # X O # X O % X @ % X @ % X @ % X @ % X @ % o @ % o @ % o @ % o @ % X @ @ X % @ X % @ X % @ X % @ X % O &   ",
"$ # # $ # # $ # # $ # # $ # # $ # # $ # # $ # # $ # # $ # # $ $ # $ $ # $ $ # $ $ # $ $ # $ $ # # $ # # $ # # $ # # $ # # $ #   ",
"o # O & # O & # O & # O & # O & $ O & $ O & $ O & $ O & $ O & + O & + O & + O & + O & + O & & O + & O + & O + & O + & O + X *   ",
"- # X O # X O # X O # X O # X O % X O % X O % X O % X O % X O % o @ % o @ % o @ % o @ % o @ @ o % @ o % @ o % @ o % @ o % O &   ",
"$ # # $ # # $ # # $ # # $ # # $ $ # $ $ # $ $ # $ $ # $ $ # $ $ # $ $ # $ $ # $ $ # $ $ # $ $ # $ $ # $ $ # $ $ # $ $ # # $ #   ",
"o # @ & # @ & # @ & # @ & # @ & $ O & $ O & $ O & $ O & $ O & + O & + O & + O & + O & + O & & O + & O + & O + & O + & O + X *   ",
"- # X O # X O # X O # X O # X O % X O % X O % X O % X O % X O % o @ % o @ % o @ % o @ % o @ @ o % @ o % @ o % @ o % @ o % O &   ",
"+ # # $ # # $ # # $ # # $ # % $ $ % $ $ % $ $ % $ $ % $ $ % $ $ % $ $ % $ $ % $ $ % $ $ % $ $ % $ $ % $ $ % $ $ % $ $ % $ $ #   ",
"o # @ & # @ & # @ & # @ & # @ & $ O & $ O & $ O & $ O & $ O & + O & + O & + O & + O & + O & & O + & O + & O + & O + & O + X *   ",
"- # X O # X O # X O # X O # X O % o O % o O % & O % X O % X O * X @ * X @ * & O * X @ % o @ @ o % @ o % @ o % @ o % @ o % O &   ",
"+ # % + # % + # % + # % + # % $ $ % $ # jXX &.&.B.B.. . B.B.&.&.[ &.&.&.&.&.1.[ 1.| O.& & + # % $ $ % $ $ % $ $ % $ $ % $ + #   ",
"X # @ & # @ & # @ & # @ & # @ & $ @ & + [ kX].].9.9.S.9.9.m m 0.0.0.m m m m m m m 9.].L.L.HX[ jX$ & O + & O + & O + & O + & *   ",
"- # X O # X O # X O # X O # X O % X # 9X{.D.-X{ q q 7 7 7 7 5 5 5 5 5 5 5 4 4 4 Z Z r 2.u...I.R.| O X % O & * O X % @ o % O &   ",
"+ # % + # % + # % + # % + # % + $ % K.7.n 6 q { -XT.T.2.2.N N M M M u u < < < u < u M g z r ' t.S.Y.O.O.1.3.3.| & $ # % $ + %   ",
"X # @ & # @ & # @ & # @ & # @ & % [ ;XD f f A A A U U N M M u < < < < 9 9 b b b , , d d *.*.u H vX@.vXC.x Y Y x m S.( O + & *   ",
"- # X O # X O # X O # X O # X O B.vX] f f f A A A U U N M M u < < < 9 9 9 b b b , , d d d *.*.' m.:.D.j j j , j j j m | % O &   ",
". # % + # % + # % + # % + # % $ wX7.z.;X6.6.f f A U U M M u u < < < < b b b , , , , d d d *.-.< P $.U.b j j j j , j S ( % + %   ",
"X # @ & # @ & # @ & # @ & # O H.DXpXN.!.!.N.R aXzX8X=.{ 2.N u o.u < u M N N 8.I I I I I G G , u.Y e.E 8., , , , , , , x.jX& *   ",
"- # X O # X O # X O # X O # X @X@.AXAXj.j.j.j.j.LXVXs e 3 8Xe.R e.3X,X2 3 5XR ~ ~ ~ ~ ~ ~ ` ,.;.D.#X@.z.b , , , , , j L.> O &   ",
". # % + # * + + % + # * $ % H.;.aXZ.Z.Z.4X4XZ.Z.zXE <Xi 3 P.j.j.~ pXVX2 i 5Xy.b.b.b.Y.V } uXuX4.7.Q G.:.UX|.|.|.^.w w.].$ + %   ",
"X # @ & B.[ x.x.x.eX( [ [ H.oXz.6X6X6XD.D.o.o.o.o.o.A A o.{.m.m.{.I 8.N M u.p.Y c c H P m 9.L.#XU.P >.E ;.cXxX/ xXW.c.S.| & *   ",
"- $ O.H.S.0.Q T F.F.xXc.c.c.fXfXfX:X:XKXq.q.q.0.q.q.l.q.XXl.XXOXOXXXl.l.l.l.l.XXH H w.S S w...w f.T L.$X Xc./ k.c.mXmXc.R.O &   ",
". O.9Xm.I UXl x Q A.A.n.F./ ZX/ bX/ 0X0XZX/ 0X/ / / / / bXbXbXX.X.X.X.X.X.X.X.X.).OX0.Q T T T T n.n.I.cX].KXOXF.E.0X*XE.x.; %   ",
"& [ m.hXo.I I G f.P w |.8 ).'.Q Q.Q.'.).).8 ).8 8 8 qX8 8 8 qX8 8 k.k.k.k.k.k.F.F.T T T Q P ..}.-.y ! n.I.T JXyX*XE.E.*X( 3.>   ",
": 9XgX6.gX7X7XI G l x P w w H H H H P |.Q.Q.Q.'.'.'.8 8 8 8 8 8 8 8 8 qXqXA.A.Q Q w P C...}.-.-.-.y y ! n.L.NX&XNX&X=XBXMXY.&   ",
"o e.D ] lXJX+.y.4X_.I l x H H f.C.x x x x x H H H P P P w w w w w w w w w w P ....c c c c w.w.-.-.y y ! cX$XyXnXtXtX*XBXNXv.*   ",
"|  Xp D lXlX` ~ %.i.y._.G G G G G l G l l l l Y Y Y Y Y Y c c c c C.........x C.GX#XFXK.:XCXq.}.y y F t.HXK.yXnXtXtX*XE.=Xb.@   ",
"| .Xp { D r.y.J.AX4.y.R o.8.8.8.G G G l l l p.l p.Y Y S c c S S S S S S c #XPXJ.V } 3.%.:XCXXX-.y ! ! I.x.%.=XnX&XE.&X=XR.O.&   ",
"Y.z.p { r..X.X.XzXG.G.G.o.A A U U 8.u.u.u.u.' ' ' ' p.p.b S ~.~.~.~.~.~.#X~ J.V O.uX} ` q.OX^.y F ! t.I.kXy.rXeX&XW.=XyX%X} #   ",
"%.U.7 D  X XV.g.] ] ] 6.f f f f T.A U U M M u.u.< < 9 b b , , , , , , S >.PX>.FXkXS.GXC.^.d.y F ! t.t.t.>.P.rXeXW.W.BXW.` i.O.  ",
"v.U.7 1X3X.Xh.sXV.V.h.hXhXh.h.V.6.f T.2.2.U N M u u < 9 b b , , , 9 1 9 p.S ~.*.*.*.-.-.d.F y F t.! F A.@X@.` eXMXMXmXW.,.y.V   ",
"v.U.7 6 dXD V.5.5.(.h.g.{ dXdX1X/.6.] -XZ Z r r K K z g g g g g g <.L z L 9 d d }.*.#.#.d.2X! ! F y y 0.W ;.,.( %XR.R.( +.W }   ",
"Y.;.7 7 p p g.5.(.sXg.{ J ^ `.>X>X>X3XU.7.7.D D D z.z.;X;.;.;.DX7.=.4 r r g 1 B v v  . .#.F d.F F F F m.P.r.+.( v.K.` rXW W uX  ",
"| IX6 6 p p D 5.(.g.{ J = s 5XpXaXN.N.N.N.R R R R R !.!.!.y.R G.$.E `.n Z K L 1 B v v  . .#.d.F F F ! oX$.r.+.H.H.( ( ,.$XW }   ",
"| $X=.6 p q { 5.(.V.f t ,X`.3X>Xs.s.s.s.s.s.SX_.e.e.e.4XZ.>.R G.@.E _ <Xt r g 1 B B v  . .#.#.d.2X2Xt.;.$.r.+.%X( ( %X$.$.W }   ",
". >.dX6 6 7 q /.(.iX_._.iX5./.g.6.6.f f T.2.2.N M u < ' ' l x f.{.7X;XM.=.r g 1 B B v v  .#.#.d.A.n.9.:.@.r.+.%Xx.R.>.[.$.W V   ",
": ` M.6 6 7 7 p 5.5.iXe.SXh./.1Xp p p q q 5 4 4 Z r r z z g L <.1 1 1 9 < M <.1 B B v v  .#.d.2XT I.m._ +Xr.,.b.9XK.+X3 @.W J.  ",
"$ ` 8X=.=.=.6 7 p /.sXh.s.7X6X] g.{ q q { 5 4 4 Z Z r r K z g L <.<.1 9 9 1 1 1 B B v v w.}.^.|.T n.r.h +XoXwX,.+.P.h 0 +X@Xi.  ",
"# 4.`.=.=.=.6 6 6 6 p 1XD ] ] D D { 5 5 { 4 -XZ r K K K z z K g L L <.1 <.1 1 1 9 B v v w.^.w Q 9.m 8X3 :.oXK.@X$XE ) ) :.>.~   ",
": 4.h `.t t t n n =.=.=.6 6 p p q q q q q q 4 4 Z Z r r K K K K z z g L L <.<.1 1 9 9 , w.w.P 0.Q {.,X3 [.oXv.>.@.[.e e _ wX%.  ",
"$ i.0 <XC k k k J J J J t t t t t n n n t n n 6 7 q 5 4 4 4 4 4 4 Z r r K z z g L L M N ' x f.f.f.7.0 3 _  XrX@XE [.e e h ` %.  ",
"# +.e s e 2 i i ^ ^ C C C C C C ^ C k C k k k k J k k J t t n t n 7 7 7 5 5 5 5 4 5 q 7.D.8.8.gXM.<X0 0 h $.Y.@.:.3 e e 3 i.%.  ",
": 4.s = = = = = a a a a a 2 2 2 i 2 2 2 2 i i i i i ^ ^ ^ ^ C C C C C C k k k J J k J J M.M.M.,X0 ) 0 0 h $.1.:.0 e e e 0 P.~   ",
". 3._ e e s = = = = = = = = = = = = = = = = a a a a a a a a a 2 2 2 2 e 2 i i i i <Xi ) 2 2 e e e ) ) 0 3 @.3.h = s e ) 0 E ~   ",
". . V %.v.` 4.W $.+X[.h 3 0 0 0 s = = = = = = = = = = = = = = = = = = = = = s = s = = = = s s s e e ) ) 3 :.J.W +.4.i.i.i.v.;   ",
"- # & : * . : * X # | 3.3.a.a.V ` ,.4.,.W @.:._ 3 3 h _ [._ 3 ) 0 3 h _ _ h 0 e = = = = = = = = = s s e 0 _ ,.. . O - . O : &   ",
"& # * & # * & # @ & % O + % O + % - # * O o O.| a.a.1.1.| O.V %.a.V 1.O.1.3.V ` +.W P.+Xh 0 3 h _ h 3 0 3 E a.$ @ + & @ $ & %   ",
". # % + # % + # % + # % + # % + $ % + $ % + # * # % * $ # * # % O # # * $ # @ % % @ # ; V %.V } 1.} a.%.%.3.. + % $ + % $ . %   ",
"- # X O # X O # X O # X O # X O % o O % o O % o O % o O % o O % o @ % o @ % o @ % o @ % & - O & * O & @ - & % @ o % @ o % O &   ",
"X # @ & # @ & # @ & # @ & # @ & $ @ & $ @ & $ @ & $ @ & $ @ & + @ & + @ & + @ & + @ & + @ . & @ + & @ + & @ + & @ + & @ $ & *   ",
". # % + # % + # % + # % + # % + $ % + $ % + $ % + $ % + $ % + $ % + $ % + $ % + $ % + $ % + + % $ + % $ + % $ + % $ + % $ + %   ",
"- # X O # X O # X O # X O # X O % o O % o O % o O % o O % o O % o @ % o @ % o @ % o @ % o @ @ o % @ o % @ o % @ o % @ o % O &   ",
"X # @ & # @ & # @ & # @ & # @ & $ @ & $ @ & $ @ & $ @ & $ @ & + @ & + @ & + @ & + @ & + @ & & @ + & @ + & @ + & @ + & @ + & *   ",
"+ # % + # % + # % + # % + # % + $ % + $ % + $ % + $ % + $ % + $ % + $ % + $ % + $ % + $ % + + % $ + % $ + % $ + % $ + % $ + %   ",
"- # X O # X O # X O # X O # X O % o O % o O % o O % o O % o O % o @ % o @ % o @ % o @ % o @ @ o % @ o % @ o % @ o % @ o % O &   ",
"X # @ & # @ & # @ & # @ & # @ & $ @ & $ @ & $ @ & $ @ & $ @ & + O & + O & + O & + O & + O & & @ + & @ + & @ + & @ + & @ + & *   ",
"+ # % + # % + # % + # % + # % + $ % + $ % + $ % + $ % + $ % + $ % $ $ % $ $ % $ $ % $ $ % $ $ % $ $ % $ $ % $ $ % $ $ % $ + %   ",
"- # X O # X O # X O # X O # X O % o O % o O % o O % o O % o O % o @ % o @ % o @ % o @ % o @ @ o % @ o % @ o % @ o % @ o % O &   ",
"X # @ & # @ & # @ & # @ & # @ & $ O & $ O & $ O & $ O & $ O & + O & + O & + O & + O & + O & & O + & O + & O + & O + & O + & *   ",
"+ # % $ # % $ # % $ # % $ # % $ $ % $ $ % $ $ % $ $ % $ $ % $ $ % $ $ % $ $ % $ $ % $ $ % $ $ % $ $ % $ $ % $ $ % $ $ % $ + #   ",
": # o O # o O # o O # o O # o O % ; O % ; O % ; O % ; O % ; O % ; O % ; O % ; O % ; O % ; O O ; % O ; % O ; % O ; % O ; % - X   "
};
