/* XPM */
static char *ebe860e780a24833a427acd9049be6deKidQI5L4qJDUP9j3[] = {
/* columns rows colors chars-per-pixel */
"64 64 157 2 ",
"   c black",
".  c #BF9563",
"X  c #C19663",
"o  c #FFFFFE",
"O  c #FEE05C",
"+  c #524745",
"@  c #F9DB5A",
"#  c white",
"$  c #FBDD5B",
"%  c #FDDF5B",
"&  c #CBA947",
"*  c #F7D959",
"=  c #FDFDFD",
"-  c #493F3C",
";  c #F5D759",
":  c #EDCF56",
">  c #635653",
",  c #4E4441",
"<  c #F2D358",
"1  c #BD9A41",
"2  c #242422",
"3  c #73706E",
"4  c #080807",
"5  c #FBDD58",
"6  c #FBDE5F",
"7  c #FFFFFA",
"8  c #FCFBFB",
"9  c #FEF7D1",
"0  c #EDAF4C",
"q  c #646361",
"w  c #2D2D2C",
"e  c #E8C855",
"r  c #D2B14B",
"t  c gray1",
"y  c #111010",
"u  c #A4A2A0",
"i  c #CFAD49",
"p  c #FFFFF5",
"a  c #838180",
"s  c #403D3B",
"d  c #454443",
"f  c #1B1B1A",
"g  c #363634",
"h  c #5F524E",
"j  c #F8F8F6",
"k  c #F5F5F4",
"l  c #D5B44D",
"z  c #8C632C",
"x  c #9B9997",
"c  c #E7E7E6",
"v  c #D8B74D",
"b  c #EFEFEE",
"n  c #E4E3E3",
"m  c #8D8C8B",
"M  c #784E28",
"N  c #FBEBA0",
"B  c #A2815E",
"V  c #93775B",
"C  c #7C7A78",
"Z  c #B3B2B0",
"A  c #C4C2C1",
"S  c #C3A044",
"D  c #ACAAA7",
"F  c #676663",
"G  c #F9E175",
"H  c #E5D5A7",
"J  c #A98860",
"K  c #DDBD50",
"L  c #9E7936",
"P  c #584D4B",
"I  c #5C5B59",
"U  c #CDCCCA",
"Y  c #FDF5CB",
"T  c #DCBB4E",
"R  c #EFB54D",
"E  c #E4CD76",
"W  c #F4D364",
"Q  c #FCF8E6",
"!  c #E2C353",
"~  c gray95",
"^  c #705E54",
"/  c #959391",
"(  c #D5D4D2",
")  c #FBEDA8",
"_  c #FCEFAF",
"`  c #C1BEBC",
"'  c #DFDDDC",
"]  c #DFBF4F",
"[  c #B9953E",
"{  c #FCF2C0",
"}  c #FAE482",
"|  c #E5C551",
" . c #FDFBEF",
".. c #FAE89A",
"X. c #835727",
"o. c #A88239",
"O. c #EFE7CF",
"+. c #9A7C5C",
"@. c #BDB9B7",
"#. c #EBEBEA",
"$. c #696967",
"%. c #DBC791",
"&. c #FBE78E",
"*. c #FEF9DD",
"=. c #F3E6B0",
"-. c #ECE2C4",
";. c #8D8684",
":. c #565250",
">. c #4D4C4A",
",. c #575654",
"<. c #695D59",
"1. c #B48F3D",
"2. c #CDC9C5",
"3. c #664925",
"4. c #EFDE9C",
"5. c #956A2E",
"6. c #F6DB6F",
"7. c #5F5F5D",
"8. c #C8A545",
"9. c #F2C955",
"0. c #7D6959",
"q. c #F7F0D5",
"w. c #CBAC54",
"e. c #DBD9D7",
"r. c #E8D48A",
"t. c #AA8641",
"y. c #938C88",
"u. c #A68B71",
"i. c #CEB46C",
"p. c #D2C3AB",
"a. c #54463C",
"s. c #937432",
"d. c #674D38",
"f. c #F2DB75",
"g. c #DDD3C5",
"h. c #B79161",
"j. c #ECDFB4",
"k. c #A09489",
"l. c #C6B59F",
"z. c #E3C867",
"x. c #F7EDBE",
"c. c #B9AFA5",
"v. c #F1C050",
"b. c #BBA37C",
"n. c #958474",
"m. c #7E5E29",
"M. c #E4AE4A",
"N. c #736764",
"B. c #BCA896",
"V. c #57381A",
"C. c #513823",
"Z. c #B59865",
"A. c #5E4023",
"S. c #5F401E",
"D. c #B19157",
"F. c #009563",
"G. c #BF96FE",
/* pixels */
"                                                                                                                                ",
"                                                                                                                                ",
"                                                                                                                                ",
"                                                                                                                                ",
"                                                                                                                                ",
"                                                                                                                                ",
"                                                                                                                                ",
"                                                t f d $.a m / x u u x a F d 2 4                                                 ",
"                                            f F D e.k o o 7 p p p p 7 # = k ' D I 4                                             ",
"                                          2 ` = 7 *.{ ) &.} G G G G &.N _ Y  .# k a                                             ",
"            4 f 2 2 2 2 2 2 w w w g g g s x o 9 &.W K & 1 1.1.1.1.[ 1 8.l e f._ p c C q q q q q q q q F F $.$.F 7.2             ",
"          f u e.n n n n n c c #.#.#.#.b ~ 8 7 r.S [ S i K | e e e | ! v 8.1 [ r q.# = = # # # # # o o o o # o o o U 2           ",
"          :.8  .9 9 9 9 9 9 9 Y Y Y Y Y Y Y { i.v ; $ % % $ $ $ $ $ % % % $ e S r._ _ _ ) ) ) ) N N N N ........9 j >.          ",
"          F = N 6 6 6 6 6 6 6 6 6 6 6 6 6 @ ; 1 [ $ % $ $ @ * * * @ $ $ % O T 5.r ; @ 5 5 $ 5 5 5 5 5 5 5 5 5 5 ) j >.          ",
"          q = 4.; % $ $ $ $ $ $ $ $ $ $ ; | ] 1 l : ] v l i i & & & & i l ! e S %.4.: @ $ @ * * @ * * * * * @ < x.j >.          ",
"          d k -.w.r K T T v v v v T ; * ! E 4.z.r l K e < ; ; ; ; < : e T r & & j.o =.: $ : K ! ! ! K K K K l %. .c w           ",
"          f 2.# O.E < < < < < < < ; $ : E Q p E r 1 e O $ $ $ $ $ $ $ O & L [ i j.#  .E @ $ @ $ $ $ @ $ @ @ =.p = x 4           ",
"            >.' # 4.: O % $ $ $ $ $ % : =.# j J z o.e @ < < : : : < ; @ l o.5.z p.# 8 r.* @ ; ; ; * * @ @ : q.= D f             ",
"              F j q.i.8.& & & 8.& i T < =.# k i.T v & 1 1 1 1 S S 8.& i i i i 1 p.#  .f.! r r r r r l & w.H 7 e.w               ",
"              y Z # Q %.e : : : : : 1.v f.q. .E ] | : < ; * @ @ $ $ @ * < : ] S H Q ..< o.8.$ @ @ @ @ 6.O.7 j 3                 ",
"                2 D 8 Q z.* $ % % O S 5.l 6.&.6.$ % $ $ $ $ $ $ $ $ $ $ $ $ % $ G G e o.z ! ; ; ; ; | r.7 c 3 4                 ",
"                  f ` # %.1.1.1 S 8.1 z z L [ : $ $ $ $ $ $ $ $ $ $ $ $ $ $ $ $ i L z z L t.t.o.o.t.D.O.= C                     ",
"                    :.~ 7 -.H H H H H H H b.t.! $ $ $ $ % % % % % % % $ $ $ $ $ w.Z.%.-.O.O.O.-.-.-.Q # U 2                     ",
"                    t 3 ( k 8 8 8 8 = o # p *.G 5 % @ : K l i & & l ] : * % $ $ _ p # 8 b b ~ ~ k ~ n Z g                       ",
"                        f d ,.I I I F 3 / n p } ; r L z X.M X.X.X.X.X.z L S : % { # ` 7.s g s d d s w 4                         ",
"                                          u 7 E o.M M M M X.L 5.5.z M M M M z & x.= q     t                                     ",
"                                          / o l.V u.B.p.g.g.W M.M.%.g.2.l.b.u.u.O.k d                                           ",
"                                          I k o 8 o # = # Q W 0 R N # 8 o # # # # A f                                           ",
"                                          4 ,.x D u C C #.*.W 0 R ..# A $.a / x C w                                             ",
"                                                t t   2 n *.W 0 R &.# u                                                         ",
"                                                      g b 9 < 0 R } 7 Z 4                                                       ",
"                                                      ,.8 { 9.0 0 6.p U y                                                       ",
"                                                      m # N v.0 0 W *.#.g                                                       ",
"                                                  t y 2.7 } R 0 0 9.{ = $.                                                      ",
"                                                    ,.~ *.W 0 0 0 v...# @.y                                                     ",
"                                              y s 3 ( # _ 9.0 R R R 6.Q k x F s 4                                               ",
"                                            y u k = # 9 G < ! T ] 9.$ N p o = b 3 t                                             ",
"                                          t a = Q =.) G v s.3.3.3.m.1 ; &.4.=.7 c s                                             ",
"                                          f ( p ..; @ 1 3.d.k.@.c.n.3.s.: * W { # m                                             ",
"                                          2 n 9 6 % & S.0.' # # # 8 @.d.L ; 5 } 7 D t                                           ",
"                                          g #.Y 6 : m.d.e.# # # # # o c.A.& % } 7 Z 4                                           ",
"                                          d ~ Y O & V.n.# # # # # # o b ^ s.5 } 7 ` y                                           ",
"                                          F = x.! L C.k.U A A ` @.@.@.@.0.M w.E  .' 2                                           ",
"                                          a = y.a.a.- , , , , - - - - - - - a.h 2.b g                                           ",
"                                          / # u P + + + + , , , , , , + + + + <.' k d                                           ",
"                                        t u # D > 0.B B +.+.V V V +.+.+.B 0.> <.U = I                                           ",
"                                        y A 8 ;.> V X X X X X X X X . X X +.> > D # a                                           ",
"                                        w c n N.> B . . . . . . . . . . X B <.> ;.= Z 4                                         ",
"                                      4 m # A > ^ J . . . . . . . . . . . J ^ > 3 #.n g                                         ",
"                                    4 a k 8 x > ^ h.X X X X X X X X X X X h.^ > <.( # U s                                       ",
"                                    q j 8 D > > ^ V +.B B J J J J B B B +.V ^ > > 3 U # ( w                                     ",
"                                  4 Z 8 / + + P P P h h h h > > > h h h h P P P P + h @.# $.                                    ",
"                                  y 2.c :.- - , , , + + + + + + + + + + + + , , , - s ;.# C                                     ",
"                                  4 Z = u F :.+ , - - - - - - - - - - - - - - - + <.y.' = 7.                                    ",
"                                    I b # k n ( ` Z u / ;.a C 3 3 3 3 C a y.u @.( b # 8 Z f                                     ",
"                                    4 >.x A ' #.k 8 o # # o = 8 8 8 8 = # # o j c U x ,.y                                       ",
"                                        t y 2 g d :.7.3 3 C ;.m m m m m a 3 I d w y t                                           ",
"                                                                                                                                ",
"                                                                                                                                ",
"                                                                                                                                ",
"                                                                                                                                ",
"                                                                                                                                ",
"                                                                                                                                ",
"                                                                                                                                "
};
