/* XPM */
static char *b1ba36cca3494bd7900debc0148c449a8bSrHb7SY0kjYkTE[] = {
/* columns rows colors chars-per-pixel */
"64 64 100 2 ",
"   c black",
".  c #000100",
"X  c #212526",
"o  c #232426",
"O  c #222627",
"+  c #242527",
"@  c #232728",
"#  c #252628",
"$  c #262729",
"%  c #27282A",
"&  c #262A2B",
"*  c #272B2C",
"=  c #28292B",
"-  c #292A2C",
";  c #2A2B2D",
":  c #282C2D",
">  c #292D2E",
",  c #2B2C2E",
"<  c #2A2E2F",
"1  c #2C2D2F",
"2  c #2B2F30",
"3  c #2D2E30",
"4  c #2E2F31",
"5  c #2C3031",
"6  c #2D3132",
"7  c #2F3032",
"8  c #2E3233",
"9  c #2F3334",
"0  c #303133",
"q  c #313234",
"w  c #323335",
"e  c #303435",
"r  c #313536",
"t  c #333436",
"y  c #323637",
"u  c #343537",
"i  c #333738",
"p  c #353638",
"a  c #363739",
"s  c #343839",
"d  c #35393A",
"f  c #37383A",
"g  c #373B3C",
"h  c #38393B",
"j  c #393A3C",
"k  c #3A3B3D",
"l  c #383C3D",
"z  c #3B3C3E",
"x  c #3B3F40",
"c  c #3D3E40",
"v  c #3E4243",
"b  c #404143",
"n  c #4B4C4E",
"m  c #525355",
"M  c #515556",
"N  c #555658",
"B  c #5D5E60",
"V  c #666A6B",
"C  c #6A6B6D",
"Z  c #77787A",
"A  c #797A7C",
"S  c #7C7D7F",
"D  c #7D7E80",
"F  c #898A8C",
"G  c #8C8D8F",
"H  c #8D8E90",
"J  c #909193",
"K  c #9A9B9D",
"L  c #9CA0A1",
"P  c #9DA1A2",
"I  c #9FA0A2",
"U  c #A1A2A4",
"Y  c #A3A4A6",
"T  c #A3A7A8",
"R  c #A5A6A8",
"E  c #A6A7A9",
"W  c #A7A8AA",
"Q  c #A8A9AB",
"!  c #A9AAAC",
"~  c #AAABAD",
"^  c #A8ACAD",
"/  c #ABACAE",
"(  c #AAAEAF",
")  c #ACADAF",
"_  c #ABAFB0",
"`  c #ADAEB0",
"'  c #AEAFB1",
"]  c #AFB0B2",
"[  c #B0B1B3",
"{  c #B1B2B4",
"}  c #B2B3B5",
"|  c #B0B4B5",
" . c #B3B4B6",
".. c #B2B6B7",
"X. c #B4B5B7",
"o. c #B6B7B9",
"O. c #B7B8BA",
"+. c #B8B9BB",
"@. c #BBBCBE",
"#. c #BEBFC1",
/* pixels */
"                                                                                                                                ",
"                                                                                                                                ",
"                                                                                                                                ",
"                                                                                                                                ",
"                                                                                                                                ",
"                                                                                                                                ",
"                                                                                                                                ",
"                                                                                                                                ",
"                                                                                                                                ",
"                                                                                                                                ",
"                                                                                                                                ",
"                                                                                                                                ",
"                                                                                                                                ",
"                                                                                                                                ",
"                                                                                                                                ",
"                                                                                                                                ",
"q 0 0 0 0 q t t 7 7 q q 7 q q 4 q q q q q q q q q q q q q q q q t q 0 0 q q q 7 0 9 q 9 q 9 0 7 q q q q 0 0 0 0 q 7 4 4 q q q 0 ",
"q q q 0 7 0 0 0 q q q q 7 q t 0 q q q q q q q q q q 0 0 0 0 0 7 q q 0 0 q q 0 7 7 7 7 9 9 9 9 9 q q q q q q 0 0 q 0 7 7 0 0 0 0 ",
"t q q 0 0 0 0 0 q 0 q 0 4 0 q 0 0 0 0 0 q q q q q 0 7 0 q t q 0 q q q q q q q q 7 7 9 t t t t t q q q 0 q q 0 7 0 q q 0 7 7 7 0 ",
"q q q q q q q q q 7 0 0 4 0 q 0 0 0 0 0 0 q q t q q 0 q q q q 0 q q q q q 0 q q 7 7 9 t t t t t t q q q q q 0 7 0 q q 0 7 7 7 0 ",
"q q q q q t t t q 0 q t q q q 0 0 0 7 0 0 q q t t t q q 0 4 4 4 0 0 0 0 7 7 7 0 7 7 7 9 9 9 9 9 u t q q t q q q 0 0 7 0 0 0 0 7 ",
"q q q q q q q q q 7 q t q q q 0 0 0 7 7 0 q q t 0 q q q q 0 q q q q q q q q 0 0 7 7 9 9 9 9 9 9 q q q q q q 0 0 0 0 7 0 q q 0 7 ",
"q q q q q q q 0 q 7 0 q 0 7 q 0 0 0 7 7 0 q q t 0 0 q q t u u u t q q q q q q 0 7 9 9 t 9 t t t 7 0 q 0 7 7 0 q 0 0 q q 0 7 7 7 ",
"q q t t t t q q t 0 q q 0 0 q q 0 0 7 7 7 0 q q u q q q q q 0 7 q 0 4 7 0 q 7 4 7 7 7 9 9 t 9 9 0 q t q q 0 q t 7 q t q 7 4 4 7 ",
"4 q t q 4 4 t 0 p q 0 t u q q q t q t 4 q 0 t u t t q 7 4 p 4 q 0 7 4 t 7 q 0 7 7 7 , 9 t i 5 9 q 7 0 q q 4 0 p q q 0 4 q 0 ; q ",
"p u 4 0 u p 1 q p 4 q f q q u q t 4 4 u q t t q p 1 q p q q 7 q 0 q u 7 4 4 0 7 t 7 t 7 2 7 t 7 q 0 t q 4 q p 7 7 q p t 4 7 t u ",
"4 7 q u 7 q ; q , q p t 7 q q 4 0 p q 4 q u 0 0 u 0 q 7 7 q 0 q 0 7 7 t u 4 1 t 2 t 9 7 9 t 9 t q 0 7 q p p q 4 q 4 , q u 7 4 4 ",
"p 0 u u 0 t p 4 t t 1 1 f u 4 p 0 q u ; 0 4 p f 1 u q q p u ; 4 7 p 4 4 1 p 0 0 t 7 2 f , 9 9 5 u t u t 7 7 q q 7 p 4 7 p 4 1 u ",
"p q 0 1 q ; p 4 7 p p q u q 7 7 u 1 q p q 4 t t u u 4 p 7 q 4 t 0 t q q q q 7 7 7 t 7 7 9 t 7 t 0 , q u 7 p k ; 4 q 4 ; 1 7 q 0 ",
"4 q 7 1 c 0 0 u q 0 q q 0 f k q 0 f 7 0 q p 0 u 7 4 0 f ; 0 u ; q 4 u 0 7 , t p t f f , 7 7 t t u p q q p 0 1 u u ; t p 7 7 7 4 ",
"1 ; q ; ; p 7 q q 0 ; , q 4 # , 0 q p q q , 1 ; , = = , 0 % q q 4 1 4 0 + , 4 # , o , l 9 t t 7 + 1 1 ; 4 4 4 u q 1 t 1 4 7 + 4 ",
"{ / o.D ; t q q 7 J X.Y `  .) @.C # t 7 4 b I o.` / ! ` { N ; t q 1 n W Q ) K W ] L v 5 9 i o V +.E ) / U [ H q 4 f 7 4 A o.W / ",
"E ! @.Z 4 7 7 q 0 G { Y ! ` ! O.V o f 7 7 x I  .] T / ^ / M , 9 t 7 m  .] { W { ] E c 4 0 t ; B { ! Q E U / F 4 0 p 4 4 S #.[ ] ",
"0 o 4 4 , u 0 0 0 0 , % = ; ; ; 7 t 7 9 7 t , * % 5 9 @ t 5 9 9 t q 4 7 # 1 7 = o 1 ; f t 0 0 1 = % # 4 1 # 4 q q , f q 1 4 # , ",
"1 7 , 7 q 4 4 q 4 1 7 p p q q p 5 i 5 7 9 f 9 t f 7 9 9 7 7 t t 7 q q 7 p , 7 q q 7 p 4 4 7 h 7 q z 0 1 t 0 4 q t 1 0 0 7 q q u ",
"7 k q 4 7 4 q q 7 u q 4 1 4 4 q 9 : f f i , t 7 7 7 t f 7 t t 7 q f 7 4 7 7 q p 4 7 4 4 p h 4 u 0 7 4 4 0 q q 4 0 u 0 4 q p u 7 ",
"t 4 1 0 q q 7 4 t ; 1 t q q t , 7 t 7 5 7 t 9 9 7 t 9 2 7 t i t 4 p 0 t 4 t q , 0 1 q h 7 p 1 t f 0 u u ; , q u 7 4 q f 4 ; q 4 ",
"q ; t u 7 0 0 u q q q 7 4 4 4 q 7 f 9 5 9 i 7 7 t 7 7 7 g 5 5 t h 7 1 q 7 4 t q 4 1 f p 7 t q q 7 t u 4 0 f q 4 p t , 4 t 0 q p ",
"q q q 4 , q q q 4 p q 4 u p 7 7 7 , t 9 t 2 t t t t 9 2 9 7 9 7 q t q q q q p 1 q t t 1 q t 7 7 t q q 7 q q 1 u 1 p 0 ; q 7 = 1 ",
"7 u 0 0 q 7 7 q p ; 0 u ; 4 p 4 7 t 9 9 7 9 9 t t 7 7 t 7 7 9 7 0 p 4 q q q 0 q 4 7 7 p q u q q q 4 q 7 4 t 0 q u , t u 4 q u 7 ",
"9 9 7 7 7 7 9 t t 7 9 9 5 5 9 9 9 9 7 7 7 9 9 t 9 t 9 7 9 t t 9 t t q 7 q u q 7 4 4 0 t p t q q q 0 q q 7 q q 4 7 0 0 7 7 q q 7 ",
"t 9 9 9 9 t t t t 7 9 t 7 7 9 9 9 7 7 7 9 9 9 9 t t t 7 7 9 9 7 0 q 0 7 7 0 7 4 q 7 7 q q q q t t q q q q u u 0 0 q q 7 7 0 7 4 ",
"9 9 9 t t t 7 7 9 7 9 t t 9 9 7 7 7 7 9 9 t t t t t t 9 9 9 9 7 q q q q 0 7 7 q q 0 7 q q q q q q 0 q q q t t 7 0 q q 0 7 7 7 4 ",
"9 9 9 t 9 9 7 7 t 7 7 t t t 9 7 7 7 7 7 9 9 t t t t 9 9 9 t t t t q q q q 7 0 q 0 7 0 t u q q 0 q 0 q q 7 0 q 4 7 0 0 0 0 0 0 0 ",
"t t t t t t 9 9 t 7 7 t 9 9 t 7 7 7 7 7 7 9 t t 9 9 9 9 t t t t q 0 7 0 q 7 7 0 0 7 0 t t q 0 0 0 q u t 7 0 q q 7 0 0 0 0 7 0 q ",
"t t t t 9 9 9 9 t 7 7 t 7 9 9 t t 9 7 7 7 9 t t t 9 9 9 t 9 7 7 q 0 7 7 0 7 7 7 q 0 7 0 q q q q 7 0 u t 0 0 t t q q q q 0 4 7 0 ",
"7 9 9 9 9 9 7 7 9 7 9 t 7 7 9 9 t t 9 9 9 9 t t t 9 7 9 t 7 7 7 q q q 0 7 0 0 0 q 0 7 0 q q q q 7 7 q q 0 q t q q q q q 0 4 4 q ",
"7 9 q t t 9 q 9 q 7 q t q 7 q 9 q 9 q 9 q 9 q 9 q 7 7 9 q 9 q q 4 q t 0 4 7 0 0 7 7 0 q t q q q q 0 q q q t q 4 7 7 q q 0 4 0 q ",
"                                                                                                                                ",
"                                                                                                                                ",
"                                                                                                                                ",
"                                                                                                                                ",
"                                                                                                                                ",
"                                                                                                                                ",
"                                                                                                                                ",
"                                                                                                                                ",
"                                                                                                                                ",
"                                                                                                                                ",
"                                                                                                                                ",
"                                                                                                                                ",
"                                                                                                                                ",
"                                                                                                                                ",
"                                                                                                                                ",
"                                                                                                                                "
};
