/* XPM */
static char *_d59694d565d48b8cf3f148b51480984dPOUKpEB3T8J5K2F[] = {
/* columns rows colors chars-per-pixel */
"64 64 254 2 ",
"   c black",
".  c #FFD901",
"X  c #FEE501",
"o  c #FF9800",
"O  c #FF9500",
"+  c #0A0704",
"@  c #FFE801",
"#  c #070402",
"$  c #FF9A00",
"%  c #030201",
"&  c #FF9900",
"*  c #FF9C01",
"=  c #FFE201",
"-  c #FFCB01",
";  c #FFDB01",
":  c #FFD301",
">  c #FFAC01",
",  c #FFEB01",
"<  c #FFCE01",
"1  c #F29402",
"2  c #FF9F01",
"3  c #FFD501",
"4  c #151104",
"5  c #1B1505",
"6  c #0D0B0A",
"7  c #FFA201",
"8  c #FFDE00",
"9  c #FFD701",
"0  c #FFEF02",
"q  c #181615",
"w  c #121211",
"e  c #E31F04",
"r  c #FFA501",
"t  c #FFAA01",
"y  c #0E0B03",
"u  c #BD3E34",
"i  c #FFF205",
"p  c #E32704",
"a  c #FFB601",
"s  c #FFB301",
"d  c #F08F03",
"f  c #F08302",
"g  c #FFBB03",
"h  c #FF9302",
"j  c #FFA700",
"k  c #F08902",
"l  c #EF7D03",
"z  c #F39B06",
"x  c #201A06",
"c  c #E63C0B",
"v  c #312B08",
"b  c #ED7305",
"n  c #F4A303",
"m  c #F7BC06",
"M  c #FAD503",
"N  c #F9C803",
"B  c #FCE201",
"V  c #FFD101",
"C  c #462C08",
"Z  c #B2A40F",
"A  c #E31B05",
"S  c #E95006",
"D  c #EB5A05",
"F  c #E74607",
"G  c #FF9E01",
"H  c #E39108",
"J  c #2A1D06",
"K  c #7F700D",
"L  c #473E0B",
"P  c #EF7801",
"I  c #594E0B",
"U  c #3E3309",
"Y  c #D67D2E",
"T  c #E32C04",
"R  c #F9D003",
"E  c #25201C",
"W  c #B93D36",
"Q  c #EC6704",
"!  c #F7B605",
"~  c #54480B",
"^  c #F6B004",
"/  c #FFF504",
"(  c #F8C309",
")  c #302923",
"_  c #E21404",
"`  c #413428",
"'  c #1E1816",
"]  c #EFB207",
"[  c #5C400B",
"{  c #EC9F07",
"}  c #372305",
"|  c #4C430A",
" . c #262006",
".. c #E19D0A",
"X. c #F4AD05",
"o. c #FAED09",
"O. c #FFB001",
"+. c #D0B80D",
"@. c #FBB203",
"#. c #9C900F",
"$. c #B6443B",
"%. c #6B5D11",
"&. c #E53804",
"*. c #FFFA05",
"=. c #A38836",
"-. c #836F38",
";. c #FBDC03",
":. c #201D19",
">. c #533B31",
",. c #AF8D3D",
"<. c #8C7338",
"1. c #A58E39",
"2. c #AB993E",
"3. c #EDBF08",
"4. c #FBD903",
"5. c #D2C438",
"6. c #DFAD0C",
"7. c #97780B",
"8. c #E68120",
"9. c #D69B32",
"0. c #B1A23F",
"q. c #C34B33",
"w. c #F9EF14",
"e. c #6F4607",
"r. c #E7C509",
"t. c #D88008",
"y. c #D8900A",
"u. c #B47F1C",
"i. c #A66608",
"p. c #95743E",
"a. c #B8AC3D",
"s. c #ECCF08",
"d. c #AC980E",
"f. c #EA8E0C",
"g. c #BE7B3A",
"h. c #C8AB0F",
"j. c #BEA10F",
"k. c #F0D909",
"l. c #513A09",
"z. c #834A3C",
"x. c #BFB510",
"c. c #776F10",
"v. c #928213",
"b. c #EBE30C",
"n. c #D2C610",
"m. c #F5A80B",
"M. c #DCB929",
"N. c #6E5535",
"B. c #DACE0D",
"V. c #EFB61B",
"C. c #E43304",
"Z. c #B38541",
"A. c #925A42",
"S. c #AE8425",
"D. c #CAA50C",
"F. c #78493C",
"G. c #5A421F",
"H. c #110E0B",
"J. c #C94A31",
"K. c #E14718",
"L. c #E8C926",
"P. c #FEDB07",
"I. c #B46A3A",
"U. c #DE8327",
"Y. c #E0B70C",
"T. c #CDAF39",
"R. c #E3DA30",
"E. c #A3820E",
"W. c #574C2F",
"Q. c #F1E51F",
"!. c #855945",
"~. c #9E7D26",
"^. c #AA892B",
"/. c #EEDA25",
"(. c #CA9337",
"). c #7B6B39",
"_. c #BA7209",
"`. c #F89005",
"'. c #824E07",
"]. c #C3760B",
"[. c #A5730E",
"{. c #A6960F",
"}. c #C48D0B",
"|. c #FC9E04",
" X c #83530A",
".X c #9F493C",
"XX c #664A0A",
"oX c #8F4C3A",
"OX c #F3E108",
"+X c #C1A515",
"@X c #CA840F",
"#X c #F6EA08",
"$X c #E1D40B",
"%X c #F07D09",
"&X c #CF962D",
"*X c #ED8714",
"=X c #BE973B",
"-X c #E09D28",
";X c #F8F209",
":X c #A8822F",
">X c #B65540",
",X c #B4912A",
"<X c #A6613C",
"1X c #EA9D1C",
"2X c #D05C2F",
"3X c #996B40",
"4X c #E02B16",
"5X c #9A7B33",
"6X c #E9921C",
"7X c #E48720",
"8X c #D59B0F",
"9X c #966B0A",
"0X c #382E27",
"qX c #F0C71C",
"wX c #B68C0F",
"eX c #DE401B",
"rX c #A8893B",
"tX c #977A2C",
"yX c #F4DB1D",
"uX c #896B10",
"iX c #AB841E",
"pX c #8C823E",
"aX c #856E24",
"sX c #FADD12",
"dX c #E38607",
"fX c #9B7017",
"gX c #AC740C",
"hX c #995D09",
"jX c #CC7A08",
"kX c #60560F",
"lX c #C28215",
"zX c #B8AA0E",
"xX c #CDAB16",
"cX c #60453B",
"vX c #F8CE05",
"bX c #453913",
"nX c #DD5707",
"mX c #8C7F0F",
"MX c #F1D11F",
"NX c #DD660C",
"BX c #CB7732",
"VX c #A07D3B",
"CX c #6A3D37",
"ZX c #C19B3E",
"AX c #E6A826",
"SX c #ED680B",
"DX c #5E423A",
"FX c #E02116",
"GX c #7B6761",
"HX c #BB940D",
"JX c #7E610A",
"KX c #BF9D28",
"LX c #625D34",
"PX c #FD9106",
/* pixels */
"                                                                                                                                ",
"                                                                                                                                ",
"                                                                                                                                ",
"                                                                                                                                ",
"                                                                                                                                ",
"                                                                                                                                ",
"                                                                                                                                ",
"                                                                                                                                ",
"                                                                                                                                ",
"                                                                                                                                ",
"                                                                                                                                ",
"                                                                                                                                ",
"                                                                                                                                ",
"                                                                                                                                ",
"        + } 5 %                                                                                                                 ",
"        } t.]. XC 4                                                                                                             ",
"        e.PXh h d ]. XC y                                                                                                       ",
"      % i.h h h O o o f._.e.J #                                                                                                 ",
"      5 t.h O O O O & $ * |.y.9XC y                                                                                             ",
"      C `.h O O O o $ $ * 2 7 7 { gXl.y # J 4                                                                                   ",
"      '.h O O O o & $ * * 2 7 7 r j { [.U [ [.[ 4                                                                               ",
"    + _.O O O O o $ * * G 2 7 7 r j j t ..fXu.X.}.XX5                                                                           ",
"    J dXO O O o $ $ * G 2 7 7 r r j j t > > { @.s @.}.XX4                                                                       ",
"    [ `.O O o & $ $ * 2 2 7 r r j j t t > > O.s s a a ! wXl.y                                                                   ",
"    hXO O O o $ $ * G 2 7 7 r j j j t > > O.s s s a a g g ] E.U %                                                               ",
"  4 jXO O o & $ * * 2 2 7 r j j t t > > > O.s s a a g g g g g 6.uXx                                                             ",
"  } d O O o $ $ * G 2 7 z H y.y.y...{ > O.s s s a a @.! ] ] ] ] 6.wX~ +                                                         ",
"  e.O O o & $ * G 2 H u.=.2.a.a.a.0.1.S...s @.8X,X^.=.=.1.2.0.0.0.tXY.7. .                                                      ",
"# i.o O o $ * * |.@X1.5.Q.o.i i i i w.R.1...8X2.R./.Q.Q.w.w.w.i R.aX( - D.I +                                                   ",
"J t.o o & $ * * lX2.yX= B B B B X X X , 5.S.iX5.= B B B B X X , 5.aX- - < 3.7. .                                                ",
"C f.& $ $ * * H =.MXM M M M 4.4.4.4.;.;./.rX:XL.M M 4.P.sXsXyX/.pXE.< - - < V D.| #                                             ",
"y l.i.H * * 2 u.T.N N N N qXM.L.vXvXR R L.^.,.qXN N T.pX).LXW.` :.D.< - - < V : r.K 4       # %                                 ",
"    + }  X@Xz :XV.m m m M.W.:.-.( ( ( N M.~.,.m m ( ).        # ~ 3.- - < V V V 3 R d.v     x kX5                               ",
"        % x [ p.V.^ ^ ! <.6 J -.m ! ! m T.~.ZX^ ^ V.-.JX9X7.7.HX3.- - - < V V : 3 9 P.+.I # # v.Z U %                           ",
"            % -.m.n n m.<.G.S.=XX.X.X.^ =XtX9.n n AX<.iX~.^.KXY.- - < < V V : : 3 9 . 8 s.K 4 L k.B.%.+                         ",
"            # p.z z z z 1X&X&X-Xn n n m.,.5X-X1 1 1X(.(.&X9.9.rX6.< < < V : : 3 9 9 . ; 8 ;.d.L +.@ k.mX4                       ",
"            # p.1 d d d d 1 1 1 1 1 1 z VXVX6Xk d d d 1 1 1 1 9.,X- < V V : 3 9 9 . . 8 8 = = +.n.@ @ X {.x                     ",
"              N.*Xf f f f f k k k k k 6X<.Z.*Xl l f f f f k k f.,.3.V V V : 3 9 9 . . 8 8 = = X B @ @ @ , Z  .                  ",
"              E g.%XP P P P P l l l l 7X).Z.8.8.8.8.U.U.7Xl l %XZ.Y.V V : 3 9 9 . ; ; 8 = = = X X @ @ , , 0 Z  .                ",
"              + ) 3XY Y Y Y U.b b b b Y W.` >.>.` ` 0X) 3Xb b b g.xXV V vX+Xr.; ; ; 8 8 = = X X @ @ , , 0 0 0 Z 5               ",
"              % % 6 :.E E E G.NXQ Q Q BX) +     % + +   !.SXQ Q g.+X: : M %.U #.s.8 8 = = X X X @ @ , , 0 0 i i #.4             ",
"                # # % %     C nXD D D I.q # # # H.G.uX%.I.D D D I.j.3 : 9 K   + L {.s.= = X X @ @ , , o.o.i i / o.K #           ",
"                % % # + # H.oXS S S S <XH.        # J N.2XF S S <Xj.9 3 . E.%     y | d.k.@ @ @ @ , 0 $Xv.B./ / *.b.I           ",
"              + cXF.F.z.z.A.2XF F F S A.) ' ' ' ' ' E !.K.c c F A.h.9 3 . j.y         y ~ Z OX, , , 0 $Xv v #.b.*.*.n.v         ",
"              6 >Xc c c c c C.&.&.&.K.!.GX>Xq.q.q.q.J.eXC.C.C.K.N.h.9 9 ; +.x             4 I zXOX0 0 b.U   y ~ x.;X*.Z 4       ",
"              6 .Xp p p p T T T T T eXDXF.4Xe e e e p p p p p J.0XbXv.Y.P.r.v                 4 kXx.#X#X|       5 c.B.;Xc.%     ",
"              + .XA A A e e e e e e J.) CXFX_ _ _ _ _ A A A 4Xz.6   # v K h.L                     5 %.x.~           v #.n.L     ",
"              % >.$.u u u u u u u $.>.+ ` $.u u W W W W W $.oX:.#       % x 5                         5 5             + | c.5   ",
"              % + w q q q q q q q w # # + w q q w w w w w w + # %                                                         4 x % ",
"                + H.+ # 6 6 H.# % + # % # 6 H.6 6 w H.# + + # %                                                                 ",
"                                                                                                                                ",
"                                                                                                                                ",
"                                                                                                                                ",
"                                                                                                                                ",
"                                                                                                                                ",
"                                                                                                                                ",
"                                                                                                                                ",
"                                                                                                                                ",
"                                                                                                                                ",
"                                                                                                                                ",
"                                                                                                                                ",
"                                                                                                                                ",
"                                                                                                                                ",
"                                                                                                                                "
};
