/* XPM */
static char *_89ae88f9bdf4204fc6634e94dca5196m9qJx0v1tXx81Rmm[] = {
/* columns rows colors chars-per-pixel */
"64 64 256 2 ",
"   c #020201",
".  c #0B0101",
"X  c #070904",
"o  c #140200",
"O  c #180601",
"+  c #14130D",
"@  c #281406",
"#  c #32220B",
"$  c #2D2F2C",
"%  c #191F20",
"&  c #4F3100",
"*  c #703C13",
"=  c #54372C",
"-  c #673B3A",
";  c #703633",
":  c #3F443C",
">  c #584804",
",  c #754801",
"<  c #7A5900",
"1  c #6C500A",
"2  c #7A6600",
"3  c #7A651A",
"4  c #5D4634",
"5  c #714B31",
"6  c #746E30",
"7  c #403344",
"8  c #3B4443",
"9  c #4C4D48",
"0  c #794D4B",
"q  c #6B4F4B",
"w  c #746D6D",
"e  c #B71007",
"r  c #B42C1B",
"t  c #B23127",
"y  c #9E3E30",
"u  c #C91607",
"i  c #D21208",
"p  c #E51C12",
"a  c #E21D08",
"s  c #DA2707",
"d  c #D7390A",
"f  c #CE3112",
"g  c #E42706",
"h  c #E43505",
"j  c #D03020",
"k  c #845B00",
"l  c #905408",
"z  c #A45C0E",
"x  c #866702",
"c  c #9A6A06",
"v  c #887400",
"b  c #9A7806",
"n  c #98781A",
"m  c #976917",
"M  c #A77800",
"N  c #A67319",
"B  c #B2740B",
"V  c #8F562B",
"C  c #AB4C36",
"Z  c #AF5331",
"A  c #9A6B22",
"S  c #9C7427",
"D  c #917431",
"F  c #AA7926",
"G  c #B06C2B",
"H  c #DB5312",
"J  c #E64707",
"K  c #E3550F",
"L  c #D9670A",
"P  c #D9700F",
"I  c #E87904",
"U  c #E46817",
"Y  c #EA710A",
"T  c #D65727",
"R  c #CE502E",
"E  c #D3712E",
"W  c #E17D37",
"Q  c #804C48",
"!  c #9B5845",
"~  c #AB5746",
"^  c #B45347",
"/  c #916F4D",
"(  c #B06B4F",
")  c #B27366",
"_  c #D74D49",
"`  c #CF504E",
"'  c #E2524B",
"]  c #CC654D",
"[  c #CB7163",
"{  c #E27570",
"}  c #76817B",
"|  c #9A900F",
" . c #A58907",
".. c #BD8408",
"X. c #B9970B",
"o. c #BB8815",
"O. c #BA9718",
"+. c #A8920E",
"@. c #B4A513",
"#. c #988A31",
"$. c #B0922C",
"%. c #B2AC2E",
"&. c #C79E1C",
"*. c #CE8E0B",
"=. c #EC8A03",
"-. c #EA8505",
";. c #F38B0A",
":. c #F58705",
">. c #ED9503",
",. c #F49403",
"<. c #FE9501",
"1. c #F49A02",
"2. c #FE9B01",
"3. c #FE940B",
"4. c #F8980A",
"5. c #EC8A16",
"6. c #EB9519",
"7. c #F39815",
"8. c #D0AD17",
"9. c #E8A807",
"0. c #F4A300",
"q. c #FDA301",
"w. c #FDAC01",
"e. c #FDA30B",
"r. c #F7AA06",
"t. c #EDB708",
"y. c #FDB302",
"u. c #F8B705",
"i. c #F6A517",
"p. c #F7B817",
"a. c #E5AD1C",
"s. c #D2922C",
"d. c #E68825",
"f. c #E6962B",
"g. c #F29D25",
"h. c #E39534",
"j. c #F69F3E",
"k. c #D6BA25",
"l. c #CBB936",
"z. c #D1AE2F",
"x. c #E7A52A",
"c. c #EBB627",
"v. c #F3B725",
"b. c #E9BC36",
"n. c #F6B436",
"m. c #EFA52E",
"M. c #BEC223",
"N. c #FDCC02",
"B. c #F8C905",
"V. c #FDD402",
"C. c #FDDB01",
"Z. c #FDDC0A",
"A. c #F6D606",
"S. c #F5CA18",
"D. c #FDD51B",
"F. c #FAD816",
"G. c #EBCF0E",
"H. c #F6E402",
"J. c #FEE302",
"K. c #FDEA03",
"L. c #FDEB0A",
"P. c #F9E60A",
"I. c #FEF206",
"U. c #F8EA16",
"Y. c #FEF315",
"T. c #EEE601",
"R. c #DBCA2B",
"E. c #D2CA30",
"W. c #ECC62A",
"Q. c #F5C828",
"!. c #E6D625",
"~. c #F9D727",
"^. c #E9C737",
"/. c #F7C835",
"(. c #F5D535",
"). c #E9D737",
"_. c #F8E825",
"`. c #FAF42A",
"'. c #ECE733",
"]. c #FCE936",
"[. c #FBF53A",
"{. c #EBE22B",
"}. c #DBD820",
"|. c #95874B",
" X c #A98A55",
".X c #AD934F",
"XX c #B6AA59",
"oX c #B8B75A",
"OX c #B2AF46",
"+X c #968C6E",
"@X c #BBB86A",
"#X c #B6AD6D",
"$X c #B68F64",
"%X c #D5964B",
"&X c #ED9C52",
"*X c #CEB14A",
"=X c #E6A644",
"-X c #EEB254",
";X c #CB9974",
":X c #C8AD74",
">X c #F1B66C",
",X c #EFCE4E",
"<X c #FBF548",
"1X c #F4E94A",
"2X c #CBC875",
"3X c #E6D76C",
"4X c #FBF465",
"5X c #F7E671",
"6X c #D9CF49",
"7X c #8F8E89",
"8X c #B2988F",
"9X c #B7AA9A",
"0X c #B2AF8C",
"qX c #B3B0AE",
"wX c #9CA29E",
"eX c #CEB598",
"rX c #D2B9B5",
"tX c #DBB09B",
"yX c #CAC788",
"uX c #DBCA97",
"iX c #D6D290",
"pX c #FCCA86",
"aX c #F2D591",
"sX c #DEE19D",
"dX c #F0E390",
"fX c #DBD3A5",
"gX c #E8D7A9",
"hX c #EDD8B6",
"jX c #F4D5A8",
"kX c #EBE7BA",
"lX c #FDE8B9",
"zX c #F7EBAF",
"xX c #E6BFC0",
"cX c #D5CECB",
"vX c #E5DCD6",
"bX c #EED0CC",
"nX c #F9E9C7",
"mX c #FBF7CA",
"MX c #FFFDDC",
"NX c #FDF8D5",
"BX c #EBE4D2",
"VX c #FFFEE4",
"CX c #FEFDEC",
"ZX c #FEF5E8",
"AX c #FDF7F3",
"SX c #FEFDF4",
"DX c #FBF6FC",
"FX c #F6FDFB",
"GX c #FAFFFE",
"HX c #FFFDFF",
"JX c white",
"KX c #FFFEFF",
"LX c #FEFEFE",
"PX c #FEFEFE",
"IX c #F4F8F5",
"UX c #EAEBE8",
/* pixels */
"SXSXGXHXSXUXSXSXSXGXSXSXFXGXGXHXGXGXGXGXGXSXSXSXGXGXGXGXGXHXGXGXGXGXGXGXGXGXGXGXGXGXGXGXGXGXGXGXGXGXGXGXGXGXGXGXGXGXGXGXGXGXGXGX",
"SXSXGXGXZX+X0XMXSXSXSXSXGXGXDXGXGXGXGXGXSXSXSXGXGXGXFXGXGXGXGXGXGXGXGXGXGXGXGXGXGXGXGXGXGXGXGXGXGXGXGXGXGXGXGXGXGXGXGXGXGXGXGXGX",
"IXGXHXAXlX%XF S tXCXSXGXGXGXGXGXGXGXGXGXSXSXGXGXGXGXSXGXGXGXSXSXGXGXGXGXGXGXGXGXGXGXGXGXGXGXGXGXGXGXGXGXGXGXGXGXGXGXGXGXGXGXGXGX",
"GXFXHXCXjXh.f.s.A / nXSXSXSXGXHXGXGXGXGXSXGXGXGXGXGXSXSXGXFXSXSXGXGXGXGXGXGXGXGXGXGXGXGXGXGXGXGXGXGXGXGXGXGXGXGXGXGXGXGXGXGXGXGX",
"GXSXSXMXpX5.7.7.g.s.A :XMXSXAXGXGXGXSXSXGXGXGXGXGXSXSXSXSXGXGXGXGXGXGXGXGXGXGXGXGXGXGXGXGXGXGXGXGXGXGXGXGXGXGXGXGXGXGXGXGXGXGXGX",
"SXSXAXMX>X5.3.3.3.7.f.N D kXZXSXGXGXSXSXGXGXGXGXGXSXGXGXGXGXGXGXGXGXGXGXGXGXGXGXGXGXGXGXGXGXGXGXGXGXGXGXGXGXGXGXGXGXGXGXGXGXGXGX",
"SXSXGXMX-X:.3.<.3.,.i.i.s.m :XVXSXGXGXGXGXGXGXGXGXGXGXGXGXGXGXGXGXGXGXGXGXGXGXGXGXGXGXGXGXGXGXGXGXGXGXGXGXGXGXGXGXGXGXGXGXGXGXGX",
"SXSXFXNXj.3.<.<.,.2.<.<.i.m.F  XNXCXSXGXGXSXHXGXGXGXGXGXGXGXGXGXGXGXGXGXGXGXGXGXGXGXGXGXGXGXGXGXGXGXGXGXGXGXGXGXGXGXGXGXGXGXGXGX",
"GXGXGXmXh.3.<.<.<.2.2.2.4.i.6.s.S jXAXDXGXGXDXGXGXGXGXGXHXGXGXGXGXGXGXGXGXGXGXGXGXGXGXGXGXGXGXGXGXGXGXGXGXGXGXGXGXGXGXGXGXGXGXGX",
"GXSXSXlXf.3.<.<.<.<.<.<.4.e.e.i.x.A eXSXrXcXHXSXSXFXGXGXGXGXGXGXGXGXGXGXGXGXGXGXGXGXGXGXGXGXGXGXGXGXGXGXGXGXGXGXGXGXGXGXGXGXGXGX",
"GXSXCXjXd.3.<.<.2.2.2.2.2.q.q.e.e.x.F uXBXq 9XVXSXSXGXGXGXGXFXGXGXGXGXGXGXGXGXGXGXGXGXGXGXGXGXGXGXGXGXGXGXGXGXGXGXGXGXGXGXGXGXGX",
"SXSXVXpXd.3.<.<.2.2.2.2.q.2.2.q.q.i.n.m uXeXD  XMXCXFXGXGXGXGXSXGXGXGXGXGXGXGXGXGXGXGXGXGXGXGXGXGXGXGXGXGXGXGXGXGXGXGXGXGXGXGXGX",
"SXCXNX>X6.3.<.<.<.2.<.q.q.2.2.q.q.q.9.n.$.$.*Xs.D mXSXGXGXGXSXSXGXGXGXGXGXGXGXGXGXGXGXGXGXGXGXGXGXGXGXGXGXGXGXGXGXGXGXGXGXGXGXGX",
"SXCXmX-X6.3.<.<.2.2.2.2.q.q.q.q.w.w.w.r.n.M c b.z.S hXSXAXGXSXSXGXGXGXGXGXGXGXGXGXGXGXGXGXGXGXGXGXGXGXGXGXGXGXGXGXGXGXGXGXGXGXGX",
"HXCXlX=X7.<.<.2.2.2.2.2.2.2.q.q.q.q.r.r.r.p.*.p.p.x.F hXCXSXGXGXGXGXGXGXGXGXGXGXGXGXGXGXGXGXGXGXGXGXGXGXGXGXGXGXGXGXGXGXGXGXGXGX",
"GXZXzXh.7.<.2.<.2.2.2.2.2.e.q.q.w.w.q.w.y.y.y.y.w.p.-XS fXCXSXGXGXGXGXGXGXGXGXGXGXGXGXGXGXGXGXGXGXGXGXGXGXGXGXGXGXGXGXGXGXGXGXGX",
"GXVXaXh.4.2.<.<.<.2.2.2.q.e.q.q.q.w.w.w.w.w.y.y.y.y.p.b.n uXCXGXGXGXHXHXGXFXGXGXGXGXGXGXSXSXGXGXGXGXGXGXGXGXGXGXGXGXGXGXGXGXGXGX",
"SXVXpXf.4.2.<.<.2.2.2.2.0.q.q.q.q.w.q.q.w.w.y.w.w.y.u.p.b.n uXCXIXGXHXHXGXGXGXGXGXGXGXGXSXSXGXGXGXGXGXGXGXGXGXGXGXGXGXGXGXGXGXGX",
"SXMX>X6.3.2.2.2.q.q.2.q.w.q.q.q.w.q.w.w.w.w.w.y.y.y.y.p.p.,XF uXCXSXAXGXGXGXFXGXSXSXGXGXGXGXGXGXGXGXGXGXGXGXGXGXGXGXGXGXGXGXGXGX",
"SXMX-X7.3.<.2.2.2.2.2.2.q.q.q.w.q.q.w.r.w.y.y.w.w.u.y.y.y.p.^.#.gXZXSXSXAXGXFXGXSXSXHXGXGXGXGXGXGXGXGXGXGXGXGXGXGXGXGXGXGXGXGXGX",
"GXNX=X4.<.<.3.3.2.<.2.q.q.q.e.q.w.w.y.y.w.y.y.y.y.y.u.y.y.B.S.^.S hXCXAXSXIXFXSXGXGXGXSXGXGXGXGXGXGXGXGXGXGXGXGXGXGXGXGXGXGXGXGX",
"SXnXh.3.<.<.3.3.3.e.2.1.e.i.i.v.i.i.9.r.y.y.y.y.u.u.u.u.u.t.t.W.-X|.nXCXSXSXSXSXGXGXGXSXGXGXGXGXGXGXGXGXGXGXGXGXGXGXGXGXGXGXGXGX",
"CXlXf.<.<.<.2.2.e.e.0.i.n.x.s.&.s.=Xc.p.w.q.y.y.p.S.p.S.Q.Q./.b.,X*X|.mXCXAXSXGXGXGXGXSXGXGXGXGXGXGXGXGXGXGXGXGXGXGXGXGXGXGXGXGX",
"MXjXd.<.<.<.2.2.e.>.p.a.l , < k k , , *.p.y.p.p.a.X. .b x x < k 1 v *X#.NXSXGXHXGXGXGXGXGXGXGXGXGXGXGXGXGXGXGXGXGXGXGXGXGXGXGXGX",
"NXpX6.<.2.2.q.1.2.i.s., +.1X<X<X<X<Xl.< *.v.c.M 2 v v | @.k.R.1X5Xv W.8.XXCXGXGXGXGXGXGXGXGXGXGXGXGXGXGXGXGXGXGXGXGXGXGXGXGXGXGX",
"mX>X5.2.<.1.1.e.e.6.k ,X<X'._.U.U.`.1X4Xx b.z.M 4X4X4X4X<X<X[.1X5X2 G.~.$.#XCXGXGXGXGXGXGXGXSXGXGXGXGXGXGXGXGXGXGXGXGXGXGXGXGXGX",
"lX-X7.<.2.q.2.4.m.l W.].U.U.P.L.L.P.U.[.&.O.o.k._.U._._.U.U.U.[.6X2 S.B.(.O.uXSXDXGXHXSXGXFXSXSXGXGXGXGXGXGXGXGXGXGXGXGXGXGXGXGX",
"zX=X7.2.2.2.1.i.B o.].A.P.C.P.H.J.J.H._.^. . .R.U.C.Z.U.P.K.K.U.E.2 ~.B.B.(.#.kXSXGXSXSXFXFXGXGXGXGXGXGXGXGXGXGXGXGXGXGXGXGXGXGX",
"dXh.7.2.,.2.2.i.c ,X~.Z.C.C.A.P.V.J.J.U.,X . .k.F.C.A.A.T.T.T._.%.v ~.B.B.D.W.| nXGXSXSXSXFXGXGXGXGXGXGXGXGXGXGXGXGXGXGXGXGXGXGX",
"pX%Xg.1.2.<.4.*...,XS.B.V.V.A.A.Z.V.V.D.).+. .^.F.V.S.!.!.{.{.4X$.b S.N.N.B.D.k.XXVXCXSXGXGXGXGXGXGXGXGXGXGXGXGXGXGXGXGXGXGXGXGX",
"fXD h.i.2.4.i.B &.(.B.V.B.B.D.S.A.V.Z.S.). . .^.S.S.1X5X3X2XXX#.@ $.~.B.N.N.B.~.z.XXVXSXGXHXGXSXGXGXGXGXGXGXGXGXGXGXGXGXGXGXGXGX",
"SXhXA s.g.7.x.M a.Q.B.B.S.(.,X(.G.N.B.S.^. .X./.t./.%.& # O   . o z.Q.N.N.N.V.A.(.$.uXAXGXGXqXCXSXSXGXGXGXGXGXGXGXGXGXGXGXGXGXGX",
"HXSXMX XF m.x.B Q.t.u.p.,Xn @ n ~.B.B.S.b.b X.W.t./.D .     X X @ b.D.N.N.N.V.C.A.(.$.nXSXSX7X+XCXIXSXSXGXHXHXGXSXSXGXGXGXGXGXGX",
"GXGXSXVX:XA %Xo.v.t.p.c.*XO . 1 /.u.B.S.b.b O.c.t./.3 . O . X O b Q.B.N.N.N.V.V.C.F.6X.XMXZXkX|.0XMXCXSXGXHXGXGXSXFXGXGXHXGXGXGX",
"FXGXGXAXCXhX/ A n.r.t.b.D o o x Q.u.t.Q.z.c &.c.9./.< & 2 x x X.S.F.N.N.N.N.Z.V.C.A.~.l.#XVXnX#XOX2XCXGXGXHXGXGXGXGXGXGXGXGXSXSX",
"GXGXHXGXAXAXBX|.n.0.9.W.1 O V $.p.t.t.v.z.c &.a.9.c.$.3X3X,X,X(.A.B.N.N.V.V.V.Z.C.V.A.].$.iXNX#X3X%.kXSXGXGXGXGXGXGXGXGXGXGXSXSX",
"FXFXAXGXGXHXZX Xm.0.9.v.x 1 :X$.p.r.r.v.s.c x.a.9.z.3 6 > > n ^.S.N.N.B.V.V.V.V.V.V.Z.F.).$.zXyXE.1X.XVXAXGXGXFXGXGXGXGXGXSXSXSX",
"GXSXSXSXHXGXvX Xx.q.0.9.z.F N s.i.0.0.p.$.N x.6.9.x.n 3 D .Xs.c S.B.B.N.N.V.V.V.V.C.C.A.U.R.XXdX8.].*X@XVXSXFXGXSXSXGXGXGXSXSXGX",
"GXGXSXSXGXSXBX Xm.=.>.1.6.n.n.i.1.0.1.g.$.N f.6.;.7.n.n.n.x.=X..8.S.B.V.V.V.V.V.C.V.C.C.A.].l.+.}._.].@.gXSXSXSXSXSXGXGXGXSXGXHX",
"GXHXGXSXGXSXBX Xf.>.>.1.4.;.=.>.>.1.,.g.F F f.5.;.;.=.-.>.>.g.6.*.~.B.N.V.V.V.V.C.C.C.C.J.F.].+.X.U.P.'.OXNXSXSXSXSXGXGXGXGXGXHX",
"HXGXGXSXGXSXvX/ f.=.4.=.;.;.=.,.>.,.;.g.N F f.-.=.=.-.=.;.=.7.6...Q.F.V.V.V.V.C.C.C.C.C.C.J.P.F.G.U.H.U.E.oXVXFXGXHXGXGXGXGXGXGX",
"HXGXGXGXSXSXvX/ h.-.I ;.I ;.;.-.=.=.-.g.m F f.I -.-.;.-.-.;.-.6...W.B.V.N.V.V.C.C.C.C.C.C.J.J.J.J.J.L.P._.%.kXSXGXGXDXGXSXSXGXGX",
"GXGXGXGXSXSXUX5 h.I I :.I I -.;.-.:.;.f.m .Xd.Y I I -.I -.;.:.5...b.F.N.V.C.C.V.C.C.C.C.Z.Z.J.J.J.J.J.K.Y.}.XXVXAXGXHXGXSXSXSXGX",
"SXSXGXGXSXGXIX= %XP I I I I -.-.I I 5.d.A .XE P E d.d.d.5.I I ;.o.z.D.V.V.V.V.A.C.C.C.C.Z.Z.J.J.K.J.L.J.K.`.%.sXCXHXGXHXGXSXSXGX",
"SXSXGXGXGXGXGX$ V %XP P L P I I I I I h.3 / ;X;X;X;X$X X%Xd.I -.*.z.S.N.F.D.A.C.C.C.C.C.J.J.J.J.K.J.L.L.K.U.'.OXVXDXGXGXSXAXSXSX",
"SXGXGXGXGXFXGXq o $X>X&X&X&Xd.P I I Y s.5 @ @ @ o . . o l W Y I B 8.~.F.S. .!.~.Z.C.C.J.J.J.J.J.J.K.J.L.L.L.`.E.fXSXSXSXGXSXGXGX",
"GXGXGXGXGXSXGXqX  O 4 5 5 5 G W U L U E |.$ . . . . . o V W L P B &.D.F.W.O.$.,XD.C.C.J.J.J.J.J.J.K.K.H.Y.L.L.'.XXMXSXFXGXGXGXGX",
"HXGXGXGXGXHXFXUX+         o * W L U U E +X%       . . O Z E L P B &.D.F.W.,XzX#.^.F.Z.J.J.K.J.J.J.K.K.I.J.I.I.`.%.sXCXFXGXGXGXGX",
"GXGXGXGXGXSXSXGXwX        . V E L K U Z 8XwX} qXw 4 / & G T U L B O.D.Z.Q.l.MXNX|.l._.H.K.K.J.L.J.L.K.I.I.I.I.U.1XOXMXSXGXHXGXGX",
"GXGXGXGXGXGXGXGXGXqX: $ $ # Z E K K U G 8XGXFXFXAXeX.X%XE T K L B &.D.V.~.l.MXGXNX.XE._.A.K.J.J.J.L.K.H.U.Y.I.Y.`.%.kXSXGXHXGXGX",
"GXGXGXGXSXSXGXGXGXGXGXFXGXAX[ R H K U Z eXGXIXFXSXSXfXD E K J L z &.D.N.D.l.NXGXCXNX.Xl._.H.L.L.J.J.Y.G.| 1XU.I.Y.'.@XCXSXGXGXGX",
"GXGXGXGXSXSXGXUXrX9X9X8X8X) ] T H H T Z rXHXGXGXSXSXSX8XT J J H z &.~.V.F.z.mXGXSXVXMX.X%.].Z.J.K.J.Y.}.OX%.<XY.I.`.OXmXCXSXGXGX",
"GXGXGXGXSXSXFXcXq / ! ( ~ ] T d d H T Z 8XqXqX9X9X9XeX) T h h H z &.~.V.F.k.kXGXGXFXSXVX#X%.].L.K.K.Y.R.dXsX%.1XY.`.E.2XVXFXSXSX",
"HXGXGXGXSXSXGXcX) ^ ] R R R d J J J R C Q / / / / ! ( ] d h h T l *X~.V.Z.k.gXGXGXGXFXGXCX:X@._.Y.K.Y.).yXMXyX%.<XU.<X%.mXFXSXSX",
"SXGXGXGXGXGXGXbX~ r f d d d h h h d R C ( ( R R R R R f d h s T , OX!.A.F.k.fXSXGXFXGXGXSXVXyX$.`.T.Y.!.yXCXCXyX@.<X[.M.sXSXSXSX",
"SXFXGXGXGXGXGXbXC j d s h h h g h f R C ] t u s s s g g s s s R * #.l.(._.k.iXSXSXGXGXGXSXCXCXyX| [._.).yXSXFXCX2X%.[.).@XCXSXGX",
"SXSXGXGXGXGXGXxXC f g g g s g s s f Z C ] r j i p a p a s s f R 5 MX.X%.1XE.yXSXSXGXGXGXSXSXSXVXiX#.].1X2XCXGXIXVX@X%.4XoXmXCXFX",
"SXGXGXGXGXGXGXxXy j g a g g s s s f ~ ! ] r u p i a p p s f r y 4 AXVX#X$.3XyXCXSXGXGXGXSXSXFXFXCXsX| 3XyXCXIXGXSXMX@XOX3X2XVXGX",
"GXGXGXGXGXFXGXrX~ r e i i i u u u r ~ 5 [ r e i i i i i u e ^ ; q SXZXVXyX/ 0XCXSXHXGXGXGXGXGXGXIXCXkX|.9XSXSXSXSXSXMX#XoX@XCXDX",
"GXGXGXGXGXFXFXcXQ [ ` _ _ _ ` ` _ { = q ) ^ ` ' ' ' _ _ ' ] ) O 8XSXIXAXCXcX9XSXSXGXGXGXGXGXGXGXGXIXSXvXqXSXSXSXGXAXGXVXXX|.BXGX",
"GXGXSXSXGXGXGXvXO q 0 0 0 0 0 0 Q - . 7X= = q q ; - - - = - @ . vXHXGXGXSXSXSXSXGXGXGXGXSXSXGXGXGXGXSXCXSXGXGXHXGXGXGXIXCX+X7XGX",
"GXGXSXSXGXGXGXUX%         .         X qX9 X                   : HXGXGXGXHXGXGXGXGXGXGXGXGXGXGXGXGXGXSXSXGXGXHXGXGXGXGXGXGXSXwXIX",
"GXGXSXGXGXGXGXSX8   X     .     X   $ HXw   X                 qXGXSXGXGXGXGXIXGXGXSXGXGXHXHXGXSXGXFXGXGXGXGXGXGXGXGXGXFXGXSXGXGX",
"FXGXSXGXHXGXAXSXcX$ X + % $ $ X   $ vXDXcX7 % % % $ $ 9 9 % 7XGXGXFXGXGXDXGXGXFXSXSXSXGXHXHXGXSXFXGXHXHXGXGXGXSXSXSXGXSXSXGXHXGX"
};
